# Wavefront OBJ file
# Exported by Misfit Model 3D 1.3.8
# Fri Aug 06 17:35:28 2021

# 24 Vertices
v -0.085745 0.214455 -0.242395
v 0.099165 0.214455 -0.242395
v -0.085745 0.214455 -0.17819
v 0.099165 0.214455 -0.17819
v 0.19162 0.368547 -0.17819
v 0.19162 0.368547 -0.242395
v 0.099165 0.52264 -0.242395
v 0.099165 0.52264 -0.17819
v -0.085745 0.52264 -0.242395
v -0.178201 0.368547 -0.242395
v -0.085745 0.52264 -0.17819
v -0.178201 0.368547 -0.17819
v -0.337785 0.732376 -0.178189
v -0.336976 0.15453 -0.17819
v -0.336976 0.518359 0.222022
v -0.336976 0.15453 0.222022
v -0.336976 0.265883 0.422641
v 0.413545 0.368547 -0.17819
v 0.26353 0.15453 0.142836
v 0.48211 0.218736 -0.17819
v 0.113718 0.475556 0.035827
v 0.242128 0.539761 -0.17819
v -0.25011 0.775179 -0.178189
v 0.417903 0.15453 -0.17819

# 120 Texture Coordinates
vt 0.0923 0.9264
vt 0.0722 0.9264
vt 0.0923 0.9264
vt 0.0722 0.9264
vt 0.0923 0.9264
vt 0.0722 0.9264
vt 0.0722 0.9264
vt 0.0722 0.9264
vt 0.0621 0.9432
vt 0.0621 0.9432
vt 0.0621 0.9432
vt 0.0722 0.9264
vt 0.0621 0.9432
vt 0.0722 0.96
vt 0.0621 0.9432
vt 0.0722 0.96
vt 0.0621 0.9432
vt 0.0722 0.96
vt 0.0923 0.96
vt 0.1024 0.9432
vt 0.0923 0.96
vt 0.1024 0.9432
vt 0.0923 0.96
vt 0.1024 0.9432
vt 0.1024 0.9432
vt 0.1024 0.9432
vt 0.0923 0.9264
vt 0.0923 0.9264
vt 0.0923 0.9264
vt 0.1024 0.9432
vt 0.0722 0.96
vt 0.0923 0.96
vt 0.0722 0.96
vt 0.0923 0.96
vt 0.0722 0.96
vt 0.0923 0.96
vt 0.1208 0.9843
vt 0.1208 0.9214
vt 0.1644 0.961
vt 0.1644 0.9214
vt 0.1644 0.961
vt 0.1208 0.9214
vt 0.1644 0.961
vt 0.1644 0.9214
vt 0.1862 0.9335
vt 0.015 0.874
vt 0.0537 0.8857
vt 0.0299 0.9197
vt 0.0537 0.8857
vt 0.015 0.874
vt 0.0482 0.8566
vt 0.0239 0.8442
vt 0.0482 0.8566
vt 0.015 0.874
vt 0.0723 0.8003
vt 0.0482 0.8566
vt 0.0239 0.8442
vt 0.0482 0.8566
vt 0.0723 0.8003
vt 0.0981 0.8348
vt 0.0879 0.8061
vt 0.0981 0.8348
vt 0.0723 0.8003
vt 0.0981 0.8348
vt 0.1183 0.8543
vt 0.0482 0.8566
vt 0.0537 0.8857
vt 0.0482 0.8566
vt 0.1183 0.8543
vt 0.1192 0.8768
vt 0.0538 0.8854
vt 0.1192 0.8549
vt 0.0369 0.9204
vt 0.0538 0.8854
vt 0.1192 0.8768
vt 0.0538 0.8854
vt 0.0369 0.9204
vt 0.0299 0.9204
vt 0.1192 0.9204
vt 0.0369 0.9204
vt 0.1192 0.8768
vt 0.0923 0.96
vt 0.1102 0.9875
vt 0.0566 0.9618
vt 0.1102 0.9875
vt 0.0923 0.96
vt 0.1198 0.9828
vt 0.1024 0.9432
vt 0.1198 0.9828
vt 0.0923 0.96
vt 0.1198 0.9828
vt 0.1024 0.9432
vt 0.1197 0.9199
vt 0.0923 0.9264
vt 0.1197 0.9199
vt 0.1024 0.9432
vt 0.0722 0.9264
vt 0.1197 0.9199
vt 0.0923 0.9264
vt 0.1197 0.9199
vt 0.0722 0.9264
vt 0.0375 0.9199
vt 0.0375 0.9199
vt 0.0722 0.9264
vt 0.0305 0.9269
vt 0.0621 0.9432
vt 0.0305 0.9269
vt 0.0722 0.9264
vt 0.0305 0.9269
vt 0.0621 0.9432
vt 0.038 0.9432
vt 0.038 0.9432
vt 0.0621 0.9432
vt 0.0566 0.9618
vt 0.0722 0.96
vt 0.0566 0.9618
vt 0.0621 0.9432
vt 0.0566 0.9618
vt 0.0722 0.96
vt 0.0923 0.96

# 120 Vertex Normals
vn 0.0 -1.0 0.0
vn 0.0 -1.0 0.0
vn 0.0 -1.0 0.0
vn -0.0 -1.0 0.0
vn 0.0 -1.0 0.0
vn 0.0 -1.0 0.0
vn 0.857493 -0.514495 -0.0
vn 0.857493 -0.514495 0.0
vn 0.857493 -0.514495 0.0
vn 0.857493 -0.514495 0.0
vn 0.857493 -0.514495 0.0
vn 0.857493 -0.514495 0.0
vn 0.857495 0.514493 -0.0
vn 0.857495 0.514493 -0.0
vn 0.857495 0.514493 -0.0
vn 0.857495 0.514493 0.0
vn 0.857495 0.514493 -0.0
vn 0.857495 0.514493 -0.0
vn -0.857492 0.514497 -0.0
vn -0.857492 0.514497 -0.0
vn -0.857492 0.514497 -0.0
vn -0.857492 0.514497 -0.0
vn -0.857492 0.514497 -0.0
vn -0.857492 0.514497 -0.0
vn -0.857491 -0.514499 0.0
vn -0.857491 -0.514499 0.0
vn -0.857491 -0.514499 0.0
vn -0.857491 -0.514499 0.0
vn -0.857491 -0.514499 0.0
vn -0.857491 -0.514499 0.0
vn -0.0 1.0 0.0
vn 0.0 1.0 0.0
vn 0.0 1.0 0.0
vn 0.0 1.0 0.0
vn 0.0 1.0 0.0
vn 0.0 1.0 0.0
vn -0.999998 -0.0014 0.001273
vn -1.0 -0.0007 0.000636
vn -1.0 -0.000467 0.000424
vn -1.0 0.0 -0.0
vn -1.0 -0.000467 0.000424
vn -1.0 -0.0007 0.000636
vn -1.0 -0.000467 0.000424
vn -1.0 0.0 -0.0
vn -1.0 0.0 -0.0
vn 0.657271 0.480576 0.580553
vn 0.609007 0.437708 0.661454
vn 0.744097 0.340556 0.574753
vn 0.609007 0.437708 0.661454
vn 0.657271 0.480576 0.580553
vn 0.459268 0.629899 0.626339
vn 0.494426 0.705173 0.508207
vn 0.459268 0.629899 0.626339
vn 0.657271 0.480576 0.580553
vn 0.343625 0.785212 0.515136
vn 0.459268 0.629899 0.626339
vn 0.494426 0.705173 0.508207
vn 0.459268 0.629899 0.626339
vn 0.10359 0.847195 0.521085
vn 0.095982 0.77785 0.621077
vn -0.395286 0.809679 0.433784
vn -0.048501 0.845378 0.531962
vn -0.048501 0.845378 0.531962
vn 0.333804 0.681415 0.651344
vn 0.401516 0.523419 0.751543
vn 0.459268 0.629899 0.626339
vn 0.609007 0.437708 0.661454
vn 0.459268 0.629899 0.626339
vn 0.401516 0.523419 0.751543
vn 0.021918 -0.985846 0.166213
vn 0.265139 -0.919091 0.291501
vn 0.063864 -0.872561 0.484312
vn 0.0 -1.0 0.0
vn 0.033001 -0.967616 0.250261
vn 0.021918 -0.985846 0.166213
vn 0.388353 -0.816628 0.426967
vn 0.669459 -0.669469 0.321925
vn 0.669459 -0.669469 0.321925
vn 0.0 -1.0 0.0
vn 0.0 -1.0 0.0
vn 0.021918 -0.985846 0.166213
vn -0.000001 0.000002 -1.0
vn -0.000001 0.000003 -1.0
vn -0.0 0.000001 -1.0
vn -0.000001 0.000003 -1.0
vn -0.000001 0.000002 -1.0
vn -0.000002 0.000002 -1.0
vn -0.000002 0.000001 -1.0
vn -0.000002 0.000002 -1.0
vn -0.000001 0.000002 -1.0
vn -0.000002 0.000002 -1.0
vn -0.000002 0.000001 -1.0
vn -0.000001 0.0 -1.0
vn 0.0 -0.0 -1.0
vn -0.000001 0.0 -1.0
vn -0.000002 0.000001 -1.0
vn 0.0 -0.0 -1.0
vn -0.000001 0.0 -1.0
vn 0.0 -0.0 -1.0
vn -0.000001 0.0 -1.0
vn 0.0 -0.0 -1.0
vn 0.0 0.0 -1.0
vn 0.0 0.0 -1.0
vn 0.0 -0.0 -1.0
vn 0.0 -0.0 -1.0
vn 0.0 -0.0 -1.0
vn 0.0 -0.0 -1.0
vn 0.0 -0.0 -1.0
vn 0.0 -0.0 -1.0
vn 0.0 -0.0 -1.0
vn 0.0 -0.0 -1.0
vn 0.0 -0.0 -1.0
vn 0.0 -0.0 -1.0
vn -0.0 0.000001 -1.0
vn 0.0 0.0 -1.0
vn -0.0 0.000001 -1.0
vn 0.0 -0.0 -1.0
vn -0.0 0.000001 -1.0
vn 0.0 0.0 -1.0
vn -0.000001 0.000002 -1.0

# 40 Ungrouped triangles

o ungrouped
g ungrouped

f 1/1/1 2/2/2 3/3/3
f 4/4/4 3/5/5 2/6/6
f 4/7/7 2/8/8 5/9/9
f 6/10/10 5/11/11 2/12/12
f 6/13/13 7/14/14 5/15/15
f 8/16/16 5/17/17 7/18/18
f 9/19/19 10/20/20 11/21/21
f 12/22/22 11/23/23 10/24/24
f 12/25/25 10/26/26 3/27/27
f 1/28/28 3/29/29 10/30/30
f 7/31/31 9/32/32 8/33/33
f 11/34/34 8/35/35 9/36/36
f 13/37/37 14/38/38 15/39/39
f 16/40/40 15/41/41 14/42/42
f 15/43/43 16/44/44 17/45/45
f 18/46/46 19/47/47 20/48/48
f 19/49/49 18/50/50 21/51/51
f 22/52/52 21/53/53 18/54/54
f 23/55/55 21/56/56 22/57/57
f 21/58/58 23/59/59 15/60/60
f 13/61/61 15/62/62 23/63/63
f 15/64/64 17/65/65 21/66/66
f 19/67/67 21/68/68 17/69/69
f 16/70/70 19/71/71 17/72/72
f 24/73/73 19/74/74 16/75/75
f 19/76/76 24/77/77 20/78/78
f 14/79/79 24/80/80 16/81/81
f 11/82/82 23/83/83 22/84/84
f 23/85/85 11/86/86 13/87/87
f 12/88/88 13/89/89 11/90/90
f 13/91/91 12/92/92 14/93/93
f 3/94/94 14/95/95 12/96/96
f 4/97/97 14/98/98 3/99/99
f 14/100/100 4/101/101 24/102/102
f 24/103/103 4/104/104 20/105/105
f 5/106/106 20/107/107 4/108/108
f 20/109/109 5/110/110 18/111/111
f 18/112/112 5/113/113 22/114/114
f 8/115/115 22/116/116 5/117/117
f 22/118/118 8/119/119 11/120/120
