# Wavefront OBJ file
# Exported by Misfit Model 3D 1.3.8
# Thu Jul 29 15:56:49 2021

# 92 Vertices
v -0.196581 3.417604 0.948507
v -0.196581 3.296949 1.036165
v -0.196581 3.505263 1.069162
v -0.196581 3.384608 1.15681
v 3.482 3.384608 1.15681
v 3.482 3.296949 1.036165
v 3.482 3.505263 1.069162
v 3.482 3.417604 0.948507
v 6.317056 3.937789 -0.058231
v -2.240183 4.559171 -0.058231
v 5.102779 3.428469 0.472678
v -1.174957 3.428469 0.472678
v -2.240183 4.559171 2.474417
v -1.174957 3.428468 2.474416
v -6.129964 4.559171 2.474417
v -6.129964 4.559173 -2.366477
v -7.071482 3.428468 2.474416
v -7.071482 3.42847 -2.985588
v 7.826915 3.428468 2.474416
v 6.317056 3.937789 -2.366478
v 7.826915 3.42847 -2.985588
v -0.092189 3.396192 1.051886
v -0.788137 3.465725 1.566197
v -0.092189 3.465725 1.566197
v -1.086401 3.445291 1.059663
v -0.788137 3.621257 0.584225
v -0.092189 3.621257 0.584225
v -2.240183 4.559173 -2.366477
v 3.385633 3.090864 -2.985588
v 7.826915 3.090864 -2.985588
v 4.072491 2.060577 -2.985589
v -1.72504 3.090864 -2.985588
v -7.071482 3.090864 -2.985588
v -3.826376 2.060577 -2.985589
v 7.027882 1.784418 -2.47799
v 7.15886 2.416399 -2.47799
v 7.217474 2.100408 -2.47799
v 6.928541 2.879319 -2.47799
v 6.580327 3.171253 -2.47799
v 6.493795 1.402701 -2.47799
v 4.217752 0.294858 -2.47799
v 3.588691 0.194708 -2.47799
v -5.9313 3.170729 -2.47799
v -4.450555 0.194708 -2.47799
v -4.910768 0.325083 -2.47799
v -6.364429 1.703522 -2.47799
v -6.312011 2.812573 -2.47799
v -6.505696 2.350399 -2.47799
v -6.529859 2.02696 -2.47799
v 7.826915 3.090863 2.474416
v -7.071482 3.090863 2.474416
v -3.825764 2.06054 2.474416
v 4.07242 2.060407 2.474416
v -5.821776 4.53547 -0.800772
v -5.821776 4.884066 -0.800772
v -5.863942 4.53547 -0.726207
v -5.863942 4.953571 -0.726561
v -5.906107 4.884066 -0.800772
v -5.906107 4.53547 -0.800772
v -5.906107 4.53547 -1.487842
v -5.906107 4.884067 -1.487842
v -5.863942 4.53547 -1.56241
v -5.821776 4.884067 -1.487842
v -5.821776 4.53547 -1.487842
v -5.863942 4.953572 -1.562054
v -2.470894 4.53547 -0.800772
v -2.470894 4.884066 -0.800772
v -2.386563 4.53547 -0.800772
v -2.386563 4.884066 -0.800772
v -2.428728 4.53547 -0.726207
v -2.428728 4.953571 -0.726561
v -2.428728 4.953572 -1.562054
v -2.470894 4.884067 -1.487842
v -2.386563 4.884067 -1.487842
v -2.428728 4.53547 -1.56241
v -2.470894 4.53547 -1.487842
v -2.386563 4.53547 -1.487842
v 7.217474 2.100406 1.922976
v 7.158851 2.416397 1.922976
v 7.027873 1.784416 1.922976
v 6.928541 2.879318 1.922977
v 6.580327 3.171252 1.922977
v 6.493786 1.402701 1.922974
v 4.217743 0.294856 1.922974
v 3.588683 0.194707 1.922974
v -5.9313 3.170728 1.922977
v -4.450564 0.194707 1.922974
v -4.910777 0.325082 1.922974
v -6.364429 1.703521 1.922976
v -6.312011 2.812572 1.922977
v -6.505696 2.350397 1.922976
v -6.529859 2.026959 1.922976

# 366 Texture Coordinates
vt 2.6028 0.2541
vt 2.6052 0.2541
vt 2.6061 0.2541
vt 2.6086 0.2541
vt 2.6061 0.2541
vt 2.6052 0.2541
vt 2.6086 0.3559
vt 2.6052 0.3559
vt 2.6061 0.3559
vt 2.6028 0.3559
vt 2.6061 0.3559
vt 2.6052 0.3559
vt 2.9161 0.0628
vt 2.9161 0.3325
vt 2.9328 0.1011
vt 2.9328 0.2989
vt 2.9328 0.1011
vt 2.9161 0.3325
vt 2.9161 0.3325
vt 2.9958 0.3325
vt 2.9328 0.2989
vt 2.9958 0.2989
vt 2.9328 0.2989
vt 2.9958 0.3325
vt 2.9958 0.455
vt 2.8433 0.455
vt 2.9961 0.5065
vt 2.8238 0.5065
vt 2.9961 0.5065
vt 2.8433 0.455
vt 2.9958 0.005
vt 2.9328 0.1011
vt 2.9958 0.2989
vt 2.9328 0.2989
vt 2.9958 0.2989
vt 2.9328 0.1011
vt 2.8433 0.0628
vt 2.9161 0.0628
vt 2.8238 0.0109
vt 2.996 0.0109
vt 2.8238 0.0109
vt 2.9161 0.0628
vt 2.6056 0.257
vt 2.6199 0.2378
vt 2.6199 0.257
vt 2.6199 0.2378
vt 2.6056 0.257
vt 2.6059 0.2295
vt 2.6059 0.2295
vt 2.6056 0.257
vt 2.5927 0.2378
vt 2.5927 0.257
vt 2.5927 0.2378
vt 2.6056 0.257
vt 2.9161 0.3325
vt 2.9958 0.455
vt 2.9958 0.3325
vt 2.9958 0.455
vt 2.9161 0.3325
vt 2.8433 0.455
vt 2.8433 0.455
vt 2.9161 0.3325
vt 2.8433 0.3325
vt 2.8433 0.3325
vt 2.9161 0.3325
vt 2.8433 0.0628
vt 2.9161 0.0628
vt 2.8433 0.0628
vt 2.9161 0.3325
vt 2.7956 0.1543
vt 2.7956 0.0142
vt 2.7631 0.1326
vt 2.7956 0.0142
vt 2.7956 0.1543
vt 2.8063 0.0142
vt 2.8063 0.0142
vt 2.7956 0.1543
vt 2.8223 0.0618
vt 2.8223 0.0618
vt 2.7956 0.1543
vt 2.8419 0.3317
vt 2.7956 0.3155
vt 2.8419 0.3317
vt 2.7956 0.1543
vt 2.8419 0.3317
vt 2.7956 0.3155
vt 2.8419 0.4544
vt 2.8419 0.4544
vt 2.7956 0.3155
vt 2.8063 0.4841
vt 2.8063 0.4841
vt 2.7956 0.3155
vt 2.7956 0.4841
vt 2.7631 0.3818
vt 2.7956 0.4841
vt 2.7956 0.3155
vt 2.4383 0.6014
vt 2.4423 0.6216
vt 2.443 0.6111
vt 2.4423 0.6216
vt 2.4383 0.6014
vt 2.4361 0.6365
vt 2.4361 0.6365
vt 2.4383 0.6014
vt 2.4245 0.6456
vt 2.4219 0.5901
vt 2.4245 0.6456
vt 2.4383 0.6014
vt 2.3522 0.5566
vt 2.4245 0.6456
vt 2.4219 0.5901
vt 2.3325 0.554
vt 2.4245 0.6456
vt 2.3522 0.5566
vt 2.4245 0.6456
vt 2.3325 0.554
vt 2.0395 0.6456
vt 2.0851 0.554
vt 2.0395 0.6456
vt 2.3325 0.554
vt 2.0703 0.5579
vt 2.0395 0.6456
vt 2.0851 0.554
vt 2.0262 0.6005
vt 2.0395 0.6456
vt 2.0703 0.5579
vt 2.0395 0.6456
vt 2.0262 0.6005
vt 2.0259 0.6344
vt 2.0259 0.6344
vt 2.0262 0.6005
vt 2.0231 0.6204
vt 2.0224 0.6104
vt 2.0231 0.6204
vt 2.0262 0.6005
vt 2.6086 0.3559
vt 2.6052 0.2541
vt 2.6052 0.3559
vt 2.6052 0.2541
vt 2.6086 0.3559
vt 2.6086 0.2541
vt 2.6061 0.3559
vt 2.6086 0.2541
vt 2.6086 0.3559
vt 2.6086 0.2541
vt 2.6061 0.3559
vt 2.6061 0.2541
vt 2.6028 0.3559
vt 2.6061 0.2541
vt 2.6061 0.3559
vt 2.6061 0.2541
vt 2.6028 0.3559
vt 2.6028 0.2541
vt 2.6052 0.3559
vt 2.6028 0.2541
vt 2.6028 0.3559
vt 2.6028 0.2541
vt 2.6052 0.3559
vt 2.6052 0.2541
vt 2.9958 0.005
vt 2.9161 0.0628
vt 2.9328 0.1011
vt 2.7295 0.489
vt 2.7189 0.489
vt 2.7189 0.2051
vt 2.7295 0.0191
vt 2.7189 0.2051
vt 2.7189 0.0191
vt 2.7932 0.2701
vt 2.7653 0.2867
vt 2.7932 0.2867
vt 2.7653 0.2867
vt 2.7932 0.2701
vt 2.7653 0.2701
vt 2.7653 0.2104
vt 2.7932 0.2297
vt 2.7932 0.2104
vt 2.7932 0.2297
vt 2.7653 0.2104
vt 2.7653 0.2297
vt 2.7932 0.2332
vt 2.7653 0.2701
vt 2.7932 0.2593
vt 2.7653 0.2701
vt 2.7932 0.2332
vt 2.7653 0.2297
vt 2.8238 0.5172
vt 2.9961 0.5065
vt 2.8238 0.5065
vt 2.9961 0.5065
vt 2.8238 0.5172
vt 2.9961 0.5172
vt 2.996 0.0002
vt 2.8238 0.0109
vt 2.996 0.0109
vt 2.8238 0.0109
vt 2.996 0.0002
vt 2.8238 0.0002
vt 2.9861 0.6055
vt 2.9861 0.6369
vt 2.9928 0.6055
vt 2.9927 0.6432
vt 2.9928 0.6055
vt 2.9861 0.6369
vt 2.9861 0.6369
vt 2.9928 0.6055
vt 2.9927 0.6432
vt 2.9928 0.6055
vt 2.9861 0.6369
vt 2.9861 0.6055
vt 2.9861 0.6369
vt 2.9861 0.6055
vt 2.9861 0.6369
vt 2.9861 0.6055
vt 2.9861 0.6369
vt 2.9861 0.6055
vt 2.9241 0.6055
vt 2.9241 0.6369
vt 2.9174 0.6055
vt 2.9241 0.6369
vt 2.9241 0.6055
vt 2.9241 0.6369
vt 2.9241 0.6055
vt 2.9241 0.6369
vt 2.9241 0.6055
vt 2.9174 0.6055
vt 2.9241 0.6369
vt 2.9241 0.6055
vt 2.9241 0.6369
vt 2.9174 0.6055
vt 2.9174 0.6432
vt 2.9241 0.6369
vt 2.9174 0.6432
vt 2.9174 0.6055
vt 2.9174 0.6432
vt 2.9241 0.6369
vt 2.9861 0.6369
vt 2.9241 0.6369
vt 2.9861 0.6369
vt 2.9241 0.6369
vt 2.9861 0.6369
vt 2.9241 0.6369
vt 2.9861 0.6369
vt 2.9174 0.6432
vt 2.9861 0.6369
vt 2.9241 0.6369
vt 2.9861 0.6369
vt 2.9174 0.6432
vt 2.9927 0.6432
vt 2.9861 0.6369
vt 2.9927 0.6432
vt 2.9174 0.6432
vt 2.9861 0.6055
vt 2.9861 0.6369
vt 2.9861 0.6055
vt 2.9861 0.6369
vt 2.9861 0.6055
vt 2.9861 0.6369
vt 2.9861 0.6055
vt 2.9861 0.6369
vt 2.9928 0.6055
vt 2.9927 0.6432
vt 2.9928 0.6055
vt 2.9861 0.6369
vt 2.9861 0.6369
vt 2.9928 0.6055
vt 2.9927 0.6432
vt 2.9928 0.6055
vt 2.9861 0.6369
vt 2.9861 0.6055
vt 2.9174 0.6432
vt 2.9927 0.6432
vt 2.9861 0.6369
vt 2.9927 0.6432
vt 2.9174 0.6432
vt 2.9861 0.6369
vt 2.9241 0.6369
vt 2.9861 0.6369
vt 2.9174 0.6432
vt 2.9861 0.6369
vt 2.9241 0.6369
vt 2.9861 0.6369
vt 2.9241 0.6369
vt 2.9861 0.6369
vt 2.9241 0.6369
vt 2.9861 0.6369
vt 2.9241 0.6369
vt 2.9174 0.6432
vt 2.9174 0.6055
vt 2.9174 0.6432
vt 2.9241 0.6369
vt 2.9174 0.6432
vt 2.9174 0.6055
vt 2.9241 0.6369
vt 2.9241 0.6055
vt 2.9241 0.6369
vt 2.9174 0.6055
vt 2.9241 0.6055
vt 2.9241 0.6369
vt 2.9241 0.6055
vt 2.9241 0.6369
vt 2.9241 0.6055
vt 2.9241 0.6369
vt 2.9174 0.6055
vt 2.9241 0.6369
vt 2.9241 0.6055
vt 2.7653 0.2297
vt 2.7932 0.2332
vt 2.7932 0.2297
vt 2.7932 0.2701
vt 2.7932 0.2593
vt 2.7653 0.2701
vt 2.7189 0.2051
vt 2.762 0.3706
vt 2.7295 0.489
vt 2.762 0.3706
vt 2.7189 0.2051
vt 2.762 0.1215
vt 2.7295 0.0191
vt 2.762 0.1215
vt 2.7189 0.2051
vt 2.6832 0.0488
vt 2.7189 0.0191
vt 2.6832 0.1715
vt 2.7189 0.2051
vt 2.6832 0.1715
vt 2.7189 0.0191
vt 2.443 0.6111
vt 2.4423 0.6216
vt 2.4383 0.6014
vt 2.4361 0.6365
vt 2.4383 0.6014
vt 2.4423 0.6216
vt 2.4245 0.6456
vt 2.4383 0.6014
vt 2.4361 0.6365
vt 2.4383 0.6014
vt 2.4245 0.6456
vt 2.4219 0.5901
vt 2.4219 0.5901
vt 2.4245 0.6456
vt 2.3522 0.5566
vt 2.3522 0.5566
vt 2.4245 0.6456
vt 2.3325 0.554
vt 2.0395 0.6456
vt 2.3325 0.554
vt 2.4245 0.6456
vt 2.3325 0.554
vt 2.0395 0.6456
vt 2.0851 0.554
vt 2.0851 0.554
vt 2.0395 0.6456
vt 2.0703 0.5579
vt 2.0703 0.5579
vt 2.0395 0.6456
vt 2.0262 0.6005
vt 2.0259 0.6344
vt 2.0262 0.6005
vt 2.0395 0.6456
vt 2.0231 0.6204
vt 2.0262 0.6005
vt 2.0259 0.6344
vt 2.0262 0.6005
vt 2.0231 0.6204
vt 2.0224 0.6104

# 366 Vertex Normals
vn -1.0 0.0 -0.0
vn -1.0 0.0 0.0
vn -1.0 0.0 0.0
vn -1.0 0.0 0.0
vn -1.0 0.0 0.0
vn -1.0 0.0 0.0
vn 1.0 0.0 -0.000001
vn 1.0 0.0 -0.0
vn 1.0 0.0 -0.0
vn 1.0 0.0 0.000001
vn 1.0 0.0 -0.0
vn 1.0 0.0 -0.0
vn 0.1123 0.966188 0.232096
vn 0.131029 0.963115 0.235033
vn -0.042998 0.895585 0.442807
vn 0.443816 0.852567 0.275967
vn -0.042998 0.895585 0.442807
vn 0.131029 0.963115 0.235033
vn 0.131029 0.963115 0.235033
vn 0.523156 0.852237 0.0
vn 0.443816 0.852567 0.275967
vn 0.261578 0.965182 0.0
vn 0.443816 0.852567 0.275967
vn 0.523156 0.852237 0.0
vn -0.279497 0.960147 0.0
vn -0.317193 0.868731 -0.380388
vn -0.940337 0.340245 0.0
vn -0.775975 0.491273 -0.395617
vn -0.940337 0.340245 0.0
vn -0.317193 0.868731 -0.380388
vn 0.027522 0.993154 0.11352
vn -0.042998 0.895585 0.442807
vn 0.261578 0.965182 0.0
vn 0.443816 0.852567 0.275967
vn 0.261578 0.965182 0.0
vn -0.042998 0.895585 0.442807
vn 0.100368 0.930439 -0.352433
vn 0.1123 0.966188 0.232096
vn 0.692563 0.69592 -0.189871
vn 0.350912 0.930351 0.106341
vn 0.692563 0.69592 -0.189871
vn 0.1123 0.966188 0.232096
vn 0.025194 0.987375 0.156385
vn 0.024355 0.994537 -0.101501
vn -0.0 0.990984 -0.133977
vn 0.024355 0.994537 -0.101501
vn 0.025194 0.987375 0.156385
vn 0.049938 0.986456 0.15624
vn 0.049938 0.986456 0.15624
vn 0.025194 0.987375 0.156385
vn 0.024355 0.914495 0.403863
vn 0.0 0.901081 0.433651
vn 0.024355 0.914495 0.403863
vn 0.025194 0.987375 0.156385
vn 0.131029 0.963115 0.235033
vn -0.279497 0.960147 0.0
vn 0.523156 0.852237 0.0
vn -0.279497 0.960147 0.0
vn 0.131029 0.963115 0.235033
vn -0.317193 0.868731 -0.380388
vn -0.317193 0.868731 -0.380388
vn 0.131029 0.963115 0.235033
vn 0.02564 0.771005 -0.636313
vn 0.02564 0.771005 -0.636313
vn 0.131029 0.963115 0.235033
vn 0.100368 0.930439 -0.352433
vn 0.1123 0.966188 0.232096
vn 0.100368 0.930439 -0.352433
vn 0.131029 0.963115 0.235033
vn -0.003459 -0.075735 -0.997122
vn 0.0 0.0 -1.0
vn 0.0 0.000001 -1.0
vn 0.0 0.0 -1.0
vn -0.003459 -0.075735 -0.997122
vn -0.028916 0.3804 -0.92437
vn 0.18511 0.821054 -0.540004
vn -0.003535 0.334685 -0.942323
vn 0.100368 0.930439 -0.352433
vn 0.100368 0.930439 -0.352433
vn -0.003535 0.334685 -0.942323
vn 0.02564 0.771005 -0.636313
vn 0.005958 0.253283 -0.967374
vn 0.02564 0.771005 -0.636313
vn -0.003535 0.334685 -0.942323
vn 0.02564 0.771005 -0.636313
vn 0.005958 0.253283 -0.967374
vn -0.317193 0.868731 -0.380388
vn -0.317193 0.868731 -0.380388
vn 0.005958 0.253283 -0.967374
vn -0.32057 0.477462 -0.818086
vn 0.014995 0.237466 -0.97128
vn 0.005918 0.051949 -0.998632
vn 0.0 0.0 -1.0
vn 0.0 0.000001 -1.0
vn 0.0 0.0 -1.0
vn 0.005918 0.051949 -0.998632
vn 0.0 -0.0 -1.0
vn 0.0 0.0 -1.0
vn 0.0 0.0 -1.0
vn 0.0 0.0 -1.0
vn 0.0 -0.0 -1.0
vn 0.0 -0.0 -1.0
vn 0.0 -0.0 -1.0
vn 0.0 -0.0 -1.0
vn 0.0 -0.0 -1.0
vn 0.0 -0.0 -1.0
vn 0.0 -0.0 -1.0
vn 0.0 -0.0 -1.0
vn 0.0 -0.0 -1.0
vn 0.0 -0.0 -1.0
vn 0.0 -0.0 -1.0
vn 0.0 -0.0 -1.0
vn 0.0 -0.0 -1.0
vn 0.0 -0.0 -1.0
vn 0.0 -0.0 -1.0
vn 0.0 -0.0 -1.0
vn 0.0 0.0 -1.0
vn 0.0 0.0 -1.0
vn 0.0 0.0 -1.0
vn 0.0 -0.0 -1.0
vn 0.0 0.0 -1.0
vn 0.0 0.0 -1.0
vn 0.0 0.0 -1.0
vn 0.0 0.0 -1.0
vn 0.0 0.0 -1.0
vn 0.0 0.0 -1.0
vn 0.0 0.0 -1.0
vn 0.0 0.0 -1.0
vn 0.0 0.0 -1.0
vn 0.0 0.0 -1.0
vn 0.0 0.0 -1.0
vn 0.0 -0.0 -1.0
vn 0.0 0.0 -1.0
vn 0.0 -0.0 -1.0
vn 0.0 0.0 -1.0
vn -0.0 -0.809 0.587809
vn -0.0 -0.809 0.587809
vn 0.0 -0.809 0.587809
vn -0.0 -0.809 0.587809
vn -0.0 -0.809 0.587809
vn -0.0 -0.809 0.587809
vn -0.0 0.587728 0.809059
vn -0.0 0.587728 0.809059
vn 0.0 0.587728 0.809059
vn -0.0 0.587728 0.809059
vn -0.0 0.587728 0.809059
vn -0.0 0.587728 0.809059
vn 0.0 0.809023 -0.587777
vn 0.0 0.809023 -0.587777
vn 0.0 0.809023 -0.587777
vn 0.0 0.809023 -0.587777
vn 0.0 0.809023 -0.587777
vn -0.0 0.809023 -0.587777
vn 0.0 -0.587772 -0.809027
vn 0.0 -0.587772 -0.809027
vn 0.0 -0.587772 -0.809027
vn 0.0 -0.587772 -0.809027
vn 0.0 -0.587772 -0.809027
vn 0.0 -0.587772 -0.809027
vn 0.025132 0.9069 0.420596
vn 0.1123 0.966188 0.232096
vn -0.042998 0.895585 0.442807
vn 0.0 0.0 1.0
vn -0.147523 0.560982 0.814577
vn -0.0 -0.0 1.0
vn 0.0 0.0 1.0
vn -0.0 -0.0 1.0
vn -0.0 -0.000001 1.0
vn -0.058717 -0.998275 -0.00001
vn -0.644114 -0.76493 0.000011
vn -0.923972 -0.38246 -0.0
vn -0.644114 -0.76493 0.000011
vn -0.058717 -0.998275 -0.00001
vn 0.035878 -0.994669 -0.096673
vn 0.79519 -0.60636 -0.000008
vn -0.121011 -0.992651 -0.000022
vn 0.795184 -0.606368 -0.0
vn -0.121011 -0.992651 -0.000022
vn 0.79519 -0.60636 -0.000008
vn -0.220611 -0.972691 -0.072128
vn -0.233815 -0.708136 -0.666239
vn 0.035878 -0.994669 -0.096673
vn 0.15094 -0.64477 -0.749325
vn 0.035878 -0.994669 -0.096673
vn -0.233815 -0.708136 -0.666239
vn -0.220611 -0.972691 -0.072128
vn -0.923972 -0.38246 -0.0
vn -0.940337 0.340245 0.0
vn -0.940337 0.340245 0.0
vn -0.940337 0.340245 0.0
vn -0.923972 -0.38246 -0.0
vn -0.644114 -0.76493 0.000011
vn 0.79519 -0.60636 -0.000008
vn 0.812291 0.583252 0.0
vn 0.812291 0.583252 0.0
vn 0.812291 0.583252 0.0
vn 0.79519 -0.60636 -0.000008
vn 0.795184 -0.606368 -0.0
vn 0.870458 0.0 0.492243
vn 0.923649 0.277838 0.263966
vn 0.87004 0.000209 0.492982
vn 0.923491 0.27797 0.26438
vn 0.87004 0.000209 0.492982
vn 0.923649 0.277838 0.263966
vn -0.923654 0.27783 0.263958
vn -0.870047 0.000209 0.492969
vn -0.923496 0.277962 0.264372
vn -0.870047 0.000209 0.492969
vn -0.923654 0.27783 0.263958
vn -0.870465 -0.0 0.492231
vn 0.0 -0.0 -1.0
vn 0.0 -0.0 -1.0
vn 0.0 0.0 -1.0
vn 0.0 -0.0 -1.0
vn 0.0 -0.0 -1.0
vn 0.0 -0.0 -1.0
vn -0.870474 0.0 -0.492214
vn -0.918883 0.183802 -0.349099
vn -0.870053 0.00021 -0.492958
vn 0.0 0.0 1.0
vn 0.0 0.0 1.0
vn 0.0 0.0 1.0
vn 0.0 0.0 1.0
vn 0.0 0.0 1.0
vn 0.0 0.0 1.0
vn 0.870046 0.00021 -0.492971
vn 0.918878 0.183808 -0.34911
vn 0.870467 -0.0 -0.492227
vn 0.918878 0.183808 -0.34911
vn 0.870046 0.00021 -0.492971
vn 0.913447 0.367489 -0.174829
vn -0.918883 0.183802 -0.349099
vn -0.913453 0.367479 -0.174824
vn -0.870053 0.00021 -0.492958
vn -0.913453 0.367479 -0.174824
vn -0.918883 0.183802 -0.349099
vn -0.923654 0.27783 0.263958
vn 0.000001 -1.0 -0.000001
vn 0.000001 -1.0 -0.000001
vn -0.000001 -1.0 -0.000001
vn 0.000001 -1.0 -0.000001
vn 0.000001 -1.0 -0.000001
vn 0.000002 -1.0 -0.000001
vn 0.913447 0.367489 -0.174829
vn 0.923649 0.277838 0.263966
vn 0.918878 0.183808 -0.34911
vn 0.923649 0.277838 0.263966
vn 0.913447 0.367489 -0.174829
vn 0.923491 0.27797 0.26438
vn -0.923654 0.27783 0.263958
vn -0.923496 0.277962 0.264372
vn -0.913453 0.367479 -0.174824
vn 0.0 0.0 -1.0
vn 0.0 0.0 -1.0
vn 0.0 0.0 -1.0
vn 0.0 0.0 -1.0
vn 0.0 0.0 -1.0
vn 0.0 0.0 -1.0
vn 0.870465 0.0 0.492231
vn 0.923653 0.277831 0.263959
vn 0.870046 0.000209 0.492971
vn 0.923495 0.277963 0.264374
vn 0.870046 0.000209 0.492971
vn 0.923653 0.277831 0.263959
vn -0.92365 0.277837 0.263964
vn -0.870041 0.000209 0.492979
vn -0.923492 0.277968 0.264379
vn -0.870041 0.000209 0.492979
vn -0.92365 0.277837 0.263964
vn -0.87046 -0.0 0.49224
vn 0.913452 0.36748 -0.174825
vn 0.923495 0.277963 0.264374
vn 0.923653 0.277831 0.263959
vn -0.923492 0.277968 0.264379
vn -0.913449 0.367488 -0.174827
vn -0.92365 0.277837 0.263964
vn -0.91888 0.183807 -0.349107
vn -0.92365 0.277837 0.263964
vn -0.913449 0.367488 -0.174827
vn 0.000002 -1.0 -0.000001
vn 0.000001 -1.0 -0.000001
vn 0.000001 -1.0 -0.000001
vn -0.000001 -1.0 -0.000001
vn 0.000001 -1.0 -0.000001
vn 0.000001 -1.0 -0.000001
vn 0.923653 0.277831 0.263959
vn 0.918883 0.183803 -0.349101
vn 0.913452 0.36748 -0.174825
vn 0.870052 0.00021 -0.49296
vn 0.913452 0.36748 -0.174825
vn 0.918883 0.183803 -0.349101
vn -0.913449 0.367488 -0.174827
vn -0.870048 0.00021 -0.492967
vn -0.91888 0.183807 -0.349107
vn -0.870469 0.0 -0.492223
vn -0.91888 0.183807 -0.349107
vn -0.870048 0.00021 -0.492967
vn 0.0 -0.0 1.0
vn 0.0 -0.0 1.0
vn 0.0 0.0 1.0
vn 0.0 -0.0 1.0
vn 0.0 -0.0 1.0
vn 0.0 -0.0 1.0
vn 0.870052 0.00021 -0.49296
vn 0.918883 0.183803 -0.349101
vn 0.870474 -0.0 -0.492215
vn -0.220611 -0.972691 -0.072128
vn -0.310517 -0.940436 -0.138419
vn -0.121011 -0.992651 -0.000022
vn -0.058717 -0.998275 -0.00001
vn 0.226893 -0.969217 -0.095598
vn 0.035878 -0.994669 -0.096673
vn -0.0 -0.0 1.0
vn 0.0 0.0 1.0
vn 0.0 0.0 1.0
vn 0.0 0.0 1.0
vn -0.0 -0.0 1.0
vn 0.0 0.0 1.0
vn 0.0 0.0 1.0
vn 0.0 0.0 1.0
vn -0.0 -0.0 1.0
vn -0.0 -0.000001 1.0
vn -0.0 -0.000001 1.0
vn -0.0 -0.000001 1.0
vn -0.0 -0.0 1.0
vn -0.0 -0.000001 1.0
vn -0.0 -0.000001 1.0
vn 0.0 0.0 1.0
vn 0.000002 -0.0 1.0
vn 0.0 -0.000001 1.0
vn 0.000001 -0.000001 1.0
vn 0.0 -0.000001 1.0
vn 0.000002 -0.0 1.0
vn -0.0 -0.000001 1.0
vn 0.0 -0.000001 1.0
vn 0.000001 -0.000001 1.0
vn 0.0 -0.000001 1.0
vn -0.0 -0.000001 1.0
vn -0.000001 -0.000002 1.0
vn -0.000001 -0.000002 1.0
vn -0.0 -0.000001 1.0
vn 0.000001 -0.000001 1.0
vn 0.000001 -0.000001 1.0
vn -0.0 -0.000001 1.0
vn 0.0 -0.000001 1.0
vn 0.0 -0.000001 1.0
vn 0.0 -0.000001 1.0
vn -0.0 -0.000001 1.0
vn 0.0 -0.000001 1.0
vn 0.0 -0.000001 1.0
vn -0.0 -0.000001 1.0
vn -0.0 -0.000001 1.0
vn 0.0 -0.000001 1.0
vn 0.0 -0.000001 1.0
vn 0.0 -0.000001 1.0
vn 0.0 -0.000001 1.0
vn -0.000001 -0.000001 1.0
vn -0.000001 -0.000001 1.0
vn -0.000001 -0.000001 1.0
vn 0.0 -0.000001 1.0
vn -0.000002 -0.0 1.0
vn -0.000001 -0.000001 1.0
vn -0.000001 -0.000001 1.0
vn -0.000001 -0.000001 1.0
vn -0.000002 -0.0 1.0
vn 0.0 0.0 1.0

# ungrouped, 122 grouped triangles

o ungrouped
g ungrouped

f 1/1/1 2/2/2 3/3/3
f 4/4/4 3/5/5 2/6/6
f 5/7/7 6/8/8 7/9/9
f 8/10/10 7/11/11 6/12/12
f 9/13/13 10/14/14 11/15/15
f 12/16/16 11/17/17 10/18/18
f 10/19/19 13/20/20 12/21/21
f 14/22/22 12/23/23 13/24/24
f 15/25/25 16/26/26 17/27/27
f 18/28/28 17/29/29 16/30/30
f 19/31/31 11/32/32 14/33/33
f 12/34/34 14/35/35 11/36/36
f 20/37/37 9/38/38 21/39/39
f 19/40/40 21/41/41 9/42/42
f 22/43/43 23/44/44 24/45/45
f 23/46/46 22/47/47 25/48/48
f 25/49/49 22/50/50 26/51/51
f 27/52/52 26/53/53 22/54/54
f 10/55/55 15/56/56 13/57/57
f 15/58/58 10/59/59 16/60/60
f 16/61/61 10/62/62 28/63/63
f 28/64/64 10/65/65 20/66/66
f 9/67/67 20/68/68 10/69/69
f 29/70/70 30/71/71 31/72/72
f 30/73/73 29/74/74 21/75/75
f 21/76/76 29/77/77 20/78/78
f 20/79/79 29/80/80 28/81/81
f 32/82/82 28/83/83 29/84/84
f 28/85/85 32/86/86 16/87/87
f 16/88/88 32/89/89 18/90/90
f 18/91/91 32/92/92 33/93/93
f 34/94/94 33/95/95 32/96/96
f 35/97/97 36/98/98 37/99/99
f 36/100/100 35/101/101 38/102/102
f 38/103/103 35/104/104 39/105/105
f 40/106/106 39/107/107 35/108/108
f 41/109/109 39/110/110 40/111/111
f 42/112/112 39/113/113 41/114/114
f 39/115/115 42/116/116 43/117/117
f 44/118/118 43/119/119 42/120/120
f 45/121/121 43/122/122 44/123/123
f 46/124/124 43/125/125 45/126/126
f 43/127/127 46/128/128 47/129/129
f 47/130/130 46/131/131 48/132/132
f 49/133/133 48/134/134 46/135/135
f 5/136/136 2/137/137 6/138/138
f 2/139/139 5/140/140 4/141/141
f 7/142/142 4/143/143 5/144/144
f 4/145/145 7/146/146 3/147/147
f 8/148/148 3/149/149 7/150/150
f 3/151/151 8/152/152 1/153/153
f 6/154/154 1/155/155 8/156/156
f 1/157/157 6/158/158 2/159/159
f 19/160/160 9/161/161 11/162/162
f 50/163/163 19/164/164 14/165/165
f 51/166/166 14/167/167 17/168/168
f 34/169/169 51/170/170 33/171/171
f 51/172/172 34/173/173 52/174/174
f 50/175/175 31/176/176 30/177/177
f 31/178/178 50/179/179 53/180/180
f 29/181/181 52/182/182 32/183/183
f 52/184/184 29/185/185 53/186/186
f 33/187/187 17/188/188 18/189/189
f 17/190/190 33/191/191 51/192/192
f 50/193/193 21/194/194 19/195/195
f 21/196/196 50/197/197 30/198/198
f 54/199/199 55/200/200 56/201/201
f 57/202/202 56/203/203 55/204/204
f 58/205/205 56/206/206 57/207/207
f 56/208/208 58/209/209 59/210/210
f 55/211/211 59/212/212 58/213/213
f 59/214/214 55/215/215 54/216/216
f 60/217/217 61/218/218 62/219/219
f 61/220/220 60/221/221 63/222/222
f 64/223/223 63/224/224 60/225/225
f 62/226/226 63/227/227 64/228/228
f 63/229/229 62/230/230 65/231/231
f 61/232/232 65/233/233 62/234/234
f 65/235/235 61/236/236 58/237/237
f 63/238/238 58/239/239 61/240/240
f 58/241/241 63/242/242 55/243/243
f 65/244/244 55/245/245 63/246/246
f 55/247/247 65/248/248 57/249/249
f 58/250/250 57/251/251 65/252/252
f 66/253/253 67/254/254 68/255/255
f 69/256/256 68/257/257 67/258/258
f 68/259/259 69/260/260 70/261/261
f 71/262/262 70/263/263 69/264/264
f 67/265/265 70/266/266 71/267/267
f 70/268/268 67/269/269 66/270/270
f 72/271/271 71/272/272 69/273/273
f 71/274/274 72/275/275 67/276/276
f 73/277/277 67/278/278 72/279/279
f 67/280/280 73/281/281 69/282/282
f 74/283/283 69/284/284 73/285/285
f 69/286/286 74/287/287 72/288/288
f 75/289/289 72/290/290 74/291/291
f 72/292/292 75/293/293 73/294/294
f 76/295/295 73/296/296 75/297/297
f 77/298/298 73/299/299 76/300/300
f 73/301/301 77/302/302 74/303/303
f 75/304/304 74/305/305 77/306/306
f 53/307/307 29/308/308 31/309/309
f 34/310/310 32/311/311 52/312/312
f 14/313/313 53/314/314 50/315/315
f 53/316/316 14/317/317 52/318/318
f 51/319/319 52/320/320 14/321/321
f 15/322/322 17/323/323 13/324/324
f 14/325/325 13/326/326 17/327/327
f 78/328/328 79/329/329 80/330/330
f 81/331/331 80/332/332 79/333/333
f 82/334/334 80/335/335 81/336/336
f 80/337/337 82/338/338 83/339/339
f 83/340/340 82/341/341 84/342/342
f 84/343/343 82/344/344 85/345/345
f 86/346/346 85/347/347 82/348/348
f 85/349/349 86/350/350 87/351/351
f 87/352/352 86/353/353 88/354/354
f 88/355/355 86/356/356 89/357/357
f 90/358/358 89/359/359 86/360/360
f 91/361/361 89/362/362 90/363/363
f 89/364/364 91/365/365 92/366/366
