# Wavefront OBJ file
# Exported by Misfit Model 3D 1.3.8
# Thu Jul 29 15:59:37 2021

# 62 Vertices
v -4.870924 3.169417 -1.947104
v -5.220905 2.824157 1.960957
v -4.870915 3.080646 1.960957
v -5.220913 2.868543 -1.947104
v -4.549343 3.171254 -2.19356
v -4.914989 2.85023 -2.193561
v -5.418132 2.454862 -1.947104
v -5.127874 2.416399 -2.193561
v -5.443999 2.014746 -1.947104
v -5.175998 2.100408 -2.193562
v -5.242645 1.57463 -1.947104
v -4.996889 1.784418 -2.193562
v -4.73644 1.160994 -1.947104
v -4.535902 1.386742 -2.193562
v -2.349116 0.057162 -1.947104
v -2.193788 0.298862 -2.193562
v -1.622614 -0.078894 -1.947104
v -1.557706 0.194709 -2.193562
v 0.198665 0.194709 -2.193562
v 3.396529 -0.078894 -1.947104
v 3.28586 0.194709 -2.193562
v 3.924694 0.094622 -1.947104
v 3.741999 0.31144 -2.193562
v 5.454457 1.54349 -1.947104
v 5.199734 1.703523 -2.193562
v 5.650583 1.986722 -1.947104
v 5.366674 2.026961 -2.193562
v 5.65408 2.429954 -1.947104
v 5.341002 2.350399 -2.193562
v 5.149633 2.840235 -2.193561
v 5.464967 2.879071 -1.947104
v 4.766605 3.17073 -2.19356
v 5.084176 3.168848 -1.947104
v 5.084184 3.080078 1.960957
v 5.464976 2.834685 1.960957
v 4.766605 3.170728 2.207414
v 5.149633 2.840233 2.207414
v 5.65409 2.429952 1.960957
v 5.341002 2.350397 2.207414
v 5.366683 2.026959 2.207414
v 5.650592 1.98672 1.960957
v 5.199734 1.703521 2.207414
v 5.454466 1.543488 1.960957
v 3.741999 0.311439 2.207414
v 3.924703 0.094621 1.960956
v 3.285869 0.194708 2.207414
v 3.396537 -0.078896 1.960956
v 0.198665 0.194708 2.207414
v -1.622605 -0.078896 1.960956
v -1.557697 0.194708 2.207414
v -2.19378 0.29886 2.207414
v -2.349107 0.05716 1.960956
v -4.535902 1.38674 2.207414
v -4.736431 1.160992 1.960956
v -4.996889 1.784416 2.207414
v -5.242635 1.574629 1.960957
v -5.175989 2.100407 2.207414
v -5.443991 2.014745 1.960957
v -5.127867 2.416397 2.207414
v -5.418124 2.45486 1.960957
v -4.914979 2.805844 2.207414
v -4.549343 3.171252 2.207414

# 258 Texture Coordinates
vt 3.9134 0.5421
vt 3.8242 0.9601
vt 3.91 0.9601
vt 3.8242 0.9601
vt 3.9134 0.5421
vt 3.8246 0.5421
vt 3.9215 0.5033
vt 3.8246 0.5421
vt 3.9134 0.5421
vt 3.8286 0.5033
vt 3.8246 0.5421
vt 3.9215 0.5033
vt 3.8246 0.5421
vt 3.8286 0.5033
vt 3.7359 0.5421
vt 3.7358 0.5033
vt 3.7359 0.5421
vt 3.8286 0.5033
vt 3.7359 0.5421
vt 3.7358 0.5033
vt 3.6489 0.5421
vt 3.6489 0.5033
vt 3.6489 0.5421
vt 3.7358 0.5033
vt 3.6489 0.5421
vt 3.6489 0.5033
vt 3.5446 0.5421
vt 3.5445 0.5033
vt 3.5446 0.5421
vt 3.6489 0.5033
vt 3.5446 0.5421
vt 3.5445 0.5033
vt 3.3765 0.5421
vt 3.3735 0.5033
vt 3.3765 0.5421
vt 3.5445 0.5033
vt 3.3765 0.5421
vt 3.3735 0.5033
vt 2.9184 0.5421
vt 2.9124 0.5033
vt 2.9184 0.5421
vt 3.3735 0.5033
vt 2.9184 0.5421
vt 2.9124 0.5033
vt 2.7795 0.5421
vt 2.7676 0.5033
vt 2.7795 0.5421
vt 2.9124 0.5033
vt 2.4968 0.5033
vt 2.7795 0.5421
vt 2.7676 0.5033
vt 2.7795 0.5421
vt 2.4968 0.5033
vt 1.9898 0.5421
vt 2.0101 0.5033
vt 1.9898 0.5421
vt 2.4968 0.5033
vt 1.9898 0.5421
vt 2.0101 0.5033
vt 1.8705 0.5421
vt 1.8804 0.5033
vt 1.8705 0.5421
vt 2.0101 0.5033
vt 1.8705 0.5421
vt 1.8804 0.5033
vt 1.4495 0.5421
vt 1.4489 0.5033
vt 1.4495 0.5421
vt 1.8804 0.5033
vt 1.4495 0.5421
vt 1.4489 0.5033
vt 1.3637 0.5421
vt 1.363 0.5033
vt 1.3637 0.5421
vt 1.4489 0.5033
vt 1.3637 0.5421
vt 1.363 0.5033
vt 1.2778 0.5421
vt 1.2771 0.5033
vt 1.2778 0.5421
vt 1.363 0.5033
vt 1.1808 0.5033
vt 1.2778 0.5421
vt 1.2771 0.5033
vt 1.2778 0.5421
vt 1.1808 0.5033
vt 1.1819 0.5421
vt 1.0845 0.5033
vt 1.1819 0.5421
vt 1.1808 0.5033
vt 1.0859 0.5421
vt 1.1819 0.5421
vt 1.0845 0.5033
vt 1.0868 0.9601
vt 1.1819 0.5421
vt 1.0859 0.5421
vt 1.1819 0.5421
vt 1.0868 0.9601
vt 1.1798 0.9601
vt 1.0855 0.9995
vt 1.1798 0.9601
vt 1.0868 0.9601
vt 1.1787 0.9995
vt 1.1798 0.9601
vt 1.0855 0.9995
vt 1.1798 0.9601
vt 1.1787 0.9995
vt 1.2778 0.9601
vt 1.2771 0.9995
vt 1.2778 0.9601
vt 1.1787 0.9995
vt 1.363 0.9995
vt 1.2778 0.9601
vt 1.2771 0.9995
vt 1.2778 0.9601
vt 1.363 0.9995
vt 1.3637 0.9601
vt 1.4489 0.9995
vt 1.3637 0.9601
vt 1.363 0.9995
vt 1.3637 0.9601
vt 1.4489 0.9995
vt 1.4495 0.9601
vt 1.8804 0.9995
vt 1.4495 0.9601
vt 1.4489 0.9995
vt 1.4495 0.9601
vt 1.8804 0.9995
vt 1.8705 0.9601
vt 2.0101 0.9995
vt 1.8705 0.9601
vt 1.8804 0.9995
vt 1.8705 0.9601
vt 2.0101 0.9995
vt 1.9898 0.9601
vt 2.4968 0.9995
vt 1.9898 0.9601
vt 2.0101 0.9995
vt 1.9898 0.9601
vt 2.4968 0.9995
vt 2.7795 0.9601
vt 2.7676 0.9995
vt 2.7795 0.9601
vt 2.4968 0.9995
vt 2.9124 0.9995
vt 2.7795 0.9601
vt 2.7676 0.9995
vt 2.7795 0.9601
vt 2.9124 0.9995
vt 2.9184 0.9601
vt 3.3735 0.9995
vt 2.9184 0.9601
vt 2.9124 0.9995
vt 2.9184 0.9601
vt 3.3735 0.9995
vt 3.3765 0.9601
vt 3.5445 0.9995
vt 3.3765 0.9601
vt 3.3735 0.9995
vt 3.3765 0.9601
vt 3.5445 0.9995
vt 3.5446 0.9601
vt 3.6489 0.9995
vt 3.5446 0.9601
vt 3.5445 0.9995
vt 3.5446 0.9601
vt 3.6489 0.9995
vt 3.6489 0.9601
vt 3.7358 0.9995
vt 3.6489 0.9601
vt 3.6489 0.9995
vt 3.6489 0.9601
vt 3.7358 0.9995
vt 3.7359 0.9601
vt 3.8282 0.9995
vt 3.7359 0.9601
vt 3.7358 0.9995
vt 3.7359 0.9601
vt 3.8282 0.9995
vt 3.8242 0.9601
vt 3.9181 0.9995
vt 3.8242 0.9601
vt 3.8282 0.9995
vt 3.8242 0.9601
vt 3.9181 0.9995
vt 3.91 0.9601
vt 3.8246 0.5421
vt 3.7359 0.9601
vt 3.8242 0.9601
vt 3.7359 0.5421
vt 3.7359 0.9601
vt 3.8246 0.5421
vt 3.6489 0.5421
vt 3.7359 0.9601
vt 3.7359 0.5421
vt 3.7359 0.9601
vt 3.6489 0.5421
vt 3.6489 0.9601
vt 3.5446 0.5421
vt 3.6489 0.9601
vt 3.6489 0.5421
vt 3.6489 0.9601
vt 3.5446 0.5421
vt 3.5446 0.9601
vt 3.3765 0.5421
vt 3.5446 0.9601
vt 3.5446 0.5421
vt 3.5446 0.9601
vt 3.3765 0.5421
vt 3.3765 0.9601
vt 2.9184 0.5421
vt 3.3765 0.9601
vt 3.3765 0.5421
vt 3.3765 0.9601
vt 2.9184 0.5421
vt 2.9184 0.9601
vt 2.7795 0.5421
vt 2.9184 0.9601
vt 2.9184 0.5421
vt 2.9184 0.9601
vt 2.7795 0.5421
vt 2.7795 0.9601
vt 2.7795 0.9601
vt 2.7795 0.5421
vt 1.9898 0.9601
vt 1.9898 0.5421
vt 1.9898 0.9601
vt 2.7795 0.5421
vt 1.8705 0.5421
vt 1.9898 0.9601
vt 1.9898 0.5421
vt 1.9898 0.9601
vt 1.8705 0.5421
vt 1.8705 0.9601
vt 1.4495 0.5421
vt 1.8705 0.9601
vt 1.8705 0.5421
vt 1.8705 0.9601
vt 1.4495 0.5421
vt 1.4495 0.9601
vt 1.3637 0.5421
vt 1.4495 0.9601
vt 1.4495 0.5421
vt 1.4495 0.9601
vt 1.3637 0.5421
vt 1.3637 0.9601
vt 1.2778 0.5421
vt 1.3637 0.9601
vt 1.3637 0.5421
vt 1.3637 0.9601
vt 1.2778 0.5421
vt 1.2778 0.9601
vt 1.2778 0.9601
vt 1.2778 0.5421
vt 1.1798 0.9601
vt 1.1819 0.5421
vt 1.1798 0.9601
vt 1.2778 0.5421

# 258 Vertex Normals
vn -0.615106 0.757554 -0.218534
vn -0.679445 0.649354 0.341607
vn -0.575438 0.785208 0.228735
vn -0.679445 0.649354 0.341607
vn -0.615106 0.757554 -0.218534
vn -0.735775 0.564543 -0.374067
vn -0.497279 0.572438 -0.651941
vn -0.735775 0.564543 -0.374067
vn -0.615106 0.757554 -0.218534
vn -0.567498 0.384161 -0.728263
vn -0.735775 0.564543 -0.374067
vn -0.497279 0.572438 -0.651941
vn -0.735775 0.564543 -0.374067
vn -0.567498 0.384161 -0.728263
vn -0.828733 0.244546 -0.503388
vn -0.648116 0.146201 -0.747376
vn -0.828733 0.244546 -0.503388
vn -0.567498 0.384161 -0.728263
vn -0.828733 0.244546 -0.503388
vn -0.648116 0.146201 -0.747376
vn -0.905433 -0.080553 -0.416776
vn -0.6213 -0.160725 -0.766912
vn -0.905433 -0.080553 -0.416776
vn -0.648116 0.146201 -0.747376
vn -0.905433 -0.080553 -0.416776
vn -0.6213 -0.160725 -0.766912
vn -0.747201 -0.499819 -0.438031
vn -0.44724 -0.420869 -0.789206
vn -0.747201 -0.499819 -0.438031
vn -0.6213 -0.160725 -0.766912
vn -0.747201 -0.499819 -0.438031
vn -0.44724 -0.420869 -0.789206
vn -0.51213 -0.742428 -0.431884
vn -0.32152 -0.555789 -0.766631
vn -0.51213 -0.742428 -0.431884
vn -0.44724 -0.420869 -0.789206
vn -0.51213 -0.742428 -0.431884
vn -0.32152 -0.555789 -0.766631
vn -0.312075 -0.855105 -0.414011
vn -0.169739 -0.639813 -0.749552
vn -0.312075 -0.855105 -0.414011
vn -0.32152 -0.555789 -0.766631
vn -0.312075 -0.855105 -0.414011
vn -0.169739 -0.639813 -0.749552
vn -0.082354 -0.909319 -0.407869
vn -0.053408 -0.661308 -0.748211
vn -0.082354 -0.909319 -0.407869
vn -0.169739 -0.639813 -0.749552
vn 0.0 -0.669288 -0.743003
vn -0.082354 -0.909319 -0.407869
vn -0.053408 -0.661308 -0.748211
vn -0.082354 -0.909319 -0.407869
vn 0.0 -0.669288 -0.743003
vn 0.11308 -0.860266 -0.497147
vn 0.124731 -0.653576 -0.746512
vn 0.11308 -0.860266 -0.497147
vn 0.0 -0.669288 -0.743003
vn 0.11308 -0.860266 -0.497147
vn 0.124731 -0.653576 -0.746512
vn 0.397908 -0.816976 -0.417397
vn 0.361293 -0.546028 -0.755858
vn 0.397908 -0.816976 -0.417397
vn 0.124731 -0.653576 -0.746512
vn 0.397908 -0.816976 -0.417397
vn 0.361293 -0.546028 -0.755858
vn 0.702492 -0.569843 -0.42636
vn 0.545871 -0.346749 -0.762752
vn 0.702492 -0.569843 -0.42636
vn 0.361293 -0.546028 -0.755858
vn 0.702492 -0.569843 -0.42636
vn 0.545871 -0.346749 -0.762752
vn 0.868935 -0.25873 -0.421914
vn 0.629334 -0.089658 -0.771946
vn 0.868935 -0.25873 -0.421914
vn 0.545871 -0.346749 -0.762752
vn 0.868935 -0.25873 -0.421914
vn 0.629334 -0.089658 -0.771946
vn 0.879536 0.183865 -0.438873
vn 0.591317 0.135656 -0.794947
vn 0.879536 0.183865 -0.438873
vn 0.629334 -0.089658 -0.771946
vn 0.546798 0.342174 -0.764153
vn 0.879536 0.183865 -0.438873
vn 0.591317 0.135656 -0.794947
vn 0.879536 0.183865 -0.438873
vn 0.546798 0.342174 -0.764153
vn 0.668057 0.639487 -0.380468
vn 0.476389 0.589316 -0.652503
vn 0.668057 0.639487 -0.380468
vn 0.546798 0.342174 -0.764153
vn 0.574765 0.755291 -0.31493
vn 0.668057 0.639487 -0.380468
vn 0.476389 0.589316 -0.652503
vn 0.558934 0.818645 0.131958
vn 0.668057 0.639487 -0.380468
vn 0.574765 0.755291 -0.31493
vn 0.668057 0.639487 -0.380468
vn 0.558934 0.818645 0.131958
vn 0.728128 0.604425 0.323266
vn 0.51242 0.694456 0.50513
vn 0.728128 0.604425 0.323266
vn 0.558934 0.818645 0.131958
vn 0.564913 0.367659 0.738715
vn 0.728128 0.604425 0.323266
vn 0.51242 0.694456 0.50513
vn 0.728128 0.604425 0.323266
vn 0.564913 0.367659 0.738715
vn 0.801021 0.177139 0.571828
vn 0.591303 0.135661 0.794957
vn 0.801021 0.177139 0.571828
vn 0.564913 0.367659 0.738715
vn 0.629327 -0.089658 0.771951
vn 0.801021 0.177139 0.571828
vn 0.591303 0.135661 0.794957
vn 0.801021 0.177139 0.571828
vn 0.629327 -0.089658 0.771951
vn 0.887012 -0.185286 0.422942
vn 0.545863 -0.34675 0.762757
vn 0.887012 -0.185286 0.422942
vn 0.629327 -0.089658 0.771951
vn 0.887012 -0.185286 0.422942
vn 0.545863 -0.34675 0.762757
vn 0.74606 -0.510852 0.427112
vn 0.361289 -0.546022 0.755864
vn 0.74606 -0.510852 0.427112
vn 0.545863 -0.34675 0.762757
vn 0.74606 -0.510852 0.427112
vn 0.361289 -0.546022 0.755864
vn 0.469248 -0.777532 0.418629
vn 0.124732 -0.653574 0.746514
vn 0.469248 -0.777532 0.418629
vn 0.361289 -0.546022 0.755864
vn 0.469248 -0.777532 0.418629
vn 0.124732 -0.653574 0.746514
vn 0.130439 -0.925187 0.356391
vn -0.0 -0.669286 0.743005
vn 0.130439 -0.925187 0.356391
vn 0.124732 -0.653574 0.746514
vn 0.130439 -0.925187 0.356391
vn -0.0 -0.669286 0.743005
vn -0.075245 -0.839807 0.537645
vn -0.053407 -0.661307 0.748212
vn -0.075245 -0.839807 0.537645
vn -0.0 -0.669286 0.743005
vn -0.169738 -0.639812 0.749552
vn -0.075245 -0.839807 0.537645
vn -0.053407 -0.661307 0.748212
vn -0.075245 -0.839807 0.537645
vn -0.169738 -0.639812 0.749552
vn -0.268912 -0.869515 0.414282
vn -0.321522 -0.555792 0.766628
vn -0.268912 -0.869515 0.414282
vn -0.169738 -0.639812 0.749552
vn -0.268912 -0.869515 0.414282
vn -0.321522 -0.555792 0.766628
vn -0.472945 -0.767793 0.432224
vn -0.447248 -0.42087 0.7892
vn -0.472945 -0.767793 0.432224
vn -0.321522 -0.555792 0.766628
vn -0.472945 -0.767793 0.432224
vn -0.447248 -0.42087 0.7892
vn -0.696291 -0.568072 0.438717
vn -0.621302 -0.160725 0.76691
vn -0.696291 -0.568072 0.438717
vn -0.447248 -0.42087 0.7892
vn -0.696291 -0.568072 0.438717
vn -0.621302 -0.160725 0.76691
vn -0.892226 -0.169964 0.418384
vn -0.646406 0.156126 0.746849
vn -0.892226 -0.169964 0.418384
vn -0.621302 -0.160725 0.76691
vn -0.892226 -0.169964 0.418384
vn -0.646406 0.156126 0.746849
vn -0.892893 0.269597 0.360637
vn -0.566471 0.385953 0.728115
vn -0.892893 0.269597 0.360637
vn -0.646406 0.156126 0.746849
vn -0.892893 0.269597 0.360637
vn -0.566471 0.385953 0.728115
vn -0.679445 0.649354 0.341607
vn -0.533071 0.63191 0.562605
vn -0.679445 0.649354 0.341607
vn -0.566471 0.385953 0.728115
vn -0.679445 0.649354 0.341607
vn -0.533071 0.63191 0.562605
vn -0.575438 0.785208 0.228735
vn -0.735775 0.564543 -0.374067
vn -0.892893 0.269597 0.360637
vn -0.679445 0.649354 0.341607
vn -0.828733 0.244546 -0.503388
vn -0.892893 0.269597 0.360637
vn -0.735775 0.564543 -0.374067
vn -0.905433 -0.080553 -0.416776
vn -0.892893 0.269597 0.360637
vn -0.828733 0.244546 -0.503388
vn -0.892893 0.269597 0.360637
vn -0.905433 -0.080553 -0.416776
vn -0.892226 -0.169964 0.418384
vn -0.747201 -0.499819 -0.438031
vn -0.892226 -0.169964 0.418384
vn -0.905433 -0.080553 -0.416776
vn -0.892226 -0.169964 0.418384
vn -0.747201 -0.499819 -0.438031
vn -0.696291 -0.568072 0.438717
vn -0.51213 -0.742428 -0.431884
vn -0.696291 -0.568072 0.438717
vn -0.747201 -0.499819 -0.438031
vn -0.696291 -0.568072 0.438717
vn -0.51213 -0.742428 -0.431884
vn -0.472945 -0.767793 0.432224
vn -0.312075 -0.855105 -0.414011
vn -0.472945 -0.767793 0.432224
vn -0.51213 -0.742428 -0.431884
vn -0.472945 -0.767793 0.432224
vn -0.312075 -0.855105 -0.414011
vn -0.268912 -0.869515 0.414282
vn -0.082354 -0.909319 -0.407869
vn -0.268912 -0.869515 0.414282
vn -0.312075 -0.855105 -0.414011
vn -0.268912 -0.869515 0.414282
vn -0.082354 -0.909319 -0.407869
vn -0.075245 -0.839807 0.537645
vn -0.075245 -0.839807 0.537645
vn -0.082354 -0.909319 -0.407869
vn 0.130439 -0.925187 0.356391
vn 0.11308 -0.860266 -0.497147
vn 0.130439 -0.925187 0.356391
vn -0.082354 -0.909319 -0.407869
vn 0.397908 -0.816976 -0.417397
vn 0.130439 -0.925187 0.356391
vn 0.11308 -0.860266 -0.497147
vn 0.130439 -0.925187 0.356391
vn 0.397908 -0.816976 -0.417397
vn 0.469248 -0.777532 0.418629
vn 0.702492 -0.569843 -0.42636
vn 0.469248 -0.777532 0.418629
vn 0.397908 -0.816976 -0.417397
vn 0.469248 -0.777532 0.418629
vn 0.702492 -0.569843 -0.42636
vn 0.74606 -0.510852 0.427112
vn 0.868935 -0.25873 -0.421914
vn 0.74606 -0.510852 0.427112
vn 0.702492 -0.569843 -0.42636
vn 0.74606 -0.510852 0.427112
vn 0.868935 -0.25873 -0.421914
vn 0.887012 -0.185286 0.422942
vn 0.879536 0.183865 -0.438873
vn 0.887012 -0.185286 0.422942
vn 0.868935 -0.25873 -0.421914
vn 0.887012 -0.185286 0.422942
vn 0.879536 0.183865 -0.438873
vn 0.801021 0.177139 0.571828
vn 0.801021 0.177139 0.571828
vn 0.879536 0.183865 -0.438873
vn 0.728128 0.604425 0.323266
vn 0.668057 0.639487 -0.380468
vn 0.728128 0.604425 0.323266
vn 0.879536 0.183865 -0.438873

# ungrouped, 86 grouped triangles

o ungrouped
g ungrouped

f 1/1/1 2/2/2 3/3/3
f 2/4/4 1/5/5 4/6/6
f 5/7/7 4/8/8 1/9/9
f 6/10/10 4/11/11 5/12/12
f 4/13/13 6/14/14 7/15/15
f 8/16/16 7/17/17 6/18/18
f 7/19/19 8/20/20 9/21/21
f 10/22/22 9/23/23 8/24/24
f 9/25/25 10/26/26 11/27/27
f 12/28/28 11/29/29 10/30/30
f 11/31/31 12/32/32 13/33/33
f 14/34/34 13/35/35 12/36/36
f 13/37/37 14/38/38 15/39/39
f 16/40/40 15/41/41 14/42/42
f 15/43/43 16/44/44 17/45/45
f 18/46/46 17/47/47 16/48/48
f 19/49/49 17/50/50 18/51/51
f 17/52/52 19/53/53 20/54/54
f 21/55/55 20/56/56 19/57/57
f 20/58/58 21/59/59 22/60/60
f 23/61/61 22/62/62 21/63/63
f 22/64/64 23/65/65 24/66/66
f 25/67/67 24/68/68 23/69/69
f 24/70/70 25/71/71 26/72/72
f 27/73/73 26/74/74 25/75/75
f 26/76/76 27/77/77 28/78/78
f 29/79/79 28/80/80 27/81/81
f 30/82/82 28/83/83 29/84/84
f 28/85/85 30/86/86 31/87/87
f 32/88/88 31/89/89 30/90/90
f 33/91/91 31/92/92 32/93/93
f 34/94/94 31/95/95 33/96/96
f 31/97/97 34/98/98 35/99/99
f 36/100/100 35/101/101 34/102/102
f 37/103/103 35/104/104 36/105/105
f 35/106/106 37/107/107 38/108/108
f 39/109/109 38/110/110 37/111/111
f 40/112/112 38/113/113 39/114/114
f 38/115/115 40/116/116 41/117/117
f 42/118/118 41/119/119 40/120/120
f 41/121/121 42/122/122 43/123/123
f 44/124/124 43/125/125 42/126/126
f 43/127/127 44/128/128 45/129/129
f 46/130/130 45/131/131 44/132/132
f 45/133/133 46/134/134 47/135/135
f 48/136/136 47/137/137 46/138/138
f 47/139/139 48/140/140 49/141/141
f 50/142/142 49/143/143 48/144/144
f 51/145/145 49/146/146 50/147/147
f 49/148/148 51/149/149 52/150/150
f 53/151/151 52/152/152 51/153/153
f 52/154/154 53/155/155 54/156/156
f 55/157/157 54/158/158 53/159/159
f 54/160/160 55/161/161 56/162/162
f 57/163/163 56/164/164 55/165/165
f 56/166/166 57/167/167 58/168/168
f 59/169/169 58/170/170 57/171/171
f 58/172/172 59/173/173 60/174/174
f 61/175/175 60/176/176 59/177/177
f 60/178/178 61/179/179 2/180/180
f 62/181/181 2/182/182 61/183/183
f 2/184/184 62/185/185 3/186/186
f 4/187/187 60/188/188 2/189/189
f 7/190/190 60/191/191 4/192/192
f 9/193/193 60/194/194 7/195/195
f 60/196/196 9/197/197 58/198/198
f 11/199/199 58/200/200 9/201/201
f 58/202/202 11/203/203 56/204/204
f 13/205/205 56/206/206 11/207/207
f 56/208/208 13/209/209 54/210/210
f 15/211/211 54/212/212 13/213/213
f 54/214/214 15/215/215 52/216/216
f 17/217/217 52/218/218 15/219/219
f 52/220/220 17/221/221 49/222/222
f 49/223/223 17/224/224 47/225/225
f 20/226/226 47/227/227 17/228/228
f 22/229/229 47/230/230 20/231/231
f 47/232/232 22/233/233 45/234/234
f 24/235/235 45/236/236 22/237/237
f 45/238/238 24/239/239 43/240/240
f 26/241/241 43/242/242 24/243/243
f 43/244/244 26/245/245 41/246/246
f 28/247/247 41/248/248 26/249/249
f 41/250/250 28/251/251 38/252/252
f 38/253/253 28/254/254 35/255/255
f 31/256/256 35/257/257 28/258/258
