# Wavefront OBJ file
# Exported by Misfit Model 3D 1.3.8
# Thu Jul 29 15:46:37 2021

# 82 Vertices
v 0.760443 4.559172 0.175175
v 0.760443 4.559173 -2.140199
v -4.386616 3.937789 0.175175
v -4.386616 3.93779 -2.140199
v -0.304783 3.428469 0.70779
v -3.564376 3.428469 0.70779
v 0.760443 4.559171 2.715955
v -0.304783 3.428468 2.715954
v 4.650224 4.559171 2.715955
v 4.650224 4.559173 -2.140199
v 5.680511 3.428468 2.715954
v 5.680511 3.42847 -2.761582
v -5.578365 3.428468 2.715954
v -5.578365 3.42847 -2.761582
v -0.642389 3.090865 -2.761582
v 5.680511 3.090865 -2.761582
v 1.28141 2.060576 -2.761583
v -5.35789 2.100408 -2.247567
v -5.309767 2.416399 -2.247567
v -5.178781 1.784418 -2.247567
v -5.096882 2.85023 -2.247567
v -4.731235 3.171253 -2.247565
v -4.717795 1.386742 -2.247567
v -2.375681 0.298862 -2.247567
v 0.016773 3.170988 -2.489622
v -1.739598 0.194708 -2.247567
v 0.016773 0.194708 -2.247567
v -5.178781 1.784416 2.153409
v -5.309759 2.416397 2.153409
v -5.357881 2.100407 2.153409
v -5.096872 2.805844 2.153409
v -4.731235 3.171252 2.153409
v -4.717795 1.38674 2.153409
v -2.375672 0.29886 2.153408
v 0.016773 3.170986 1.911352
v -1.73959 0.194708 2.153408
v 0.016773 0.194708 2.153408
v -4.309466 2.060576 -2.761583
v -5.578365 3.090865 -2.761582
v -3.578224 3.090865 -2.761582
v 4.584712 3.170728 2.153409
v 3.103977 0.194708 2.153408
v 3.560107 0.311439 2.153408
v 5.017842 1.703521 2.153409
v 5.18479 2.026959 2.153409
v 4.967741 2.840233 2.153409
v 5.159109 2.350397 2.153409
v 4.584712 3.170729 -2.247565
v 3.103968 0.194708 -2.247567
v 3.560107 0.31144 -2.247567
v 5.017842 1.703523 -2.247567
v 5.184781 2.02696 -2.247567
v 4.967741 2.840235 -2.247567
v 5.159109 2.350399 -2.247567
v -5.578365 3.090863 2.715954
v 5.680511 3.090863 2.715954
v 1.076283 4.53547 -0.365709
v 1.076283 4.884067 -0.365709
v 1.034118 4.53547 -0.291135
v 1.034118 4.953572 -0.291498
v 0.991952 4.884067 -0.365709
v 0.991952 4.53547 -0.365709
v 0.991952 4.53547 -1.052781
v 0.991952 4.884067 -1.052781
v 1.034118 4.53547 -1.127346
v 1.076283 4.884067 -1.052781
v 1.076283 4.53547 -1.052781
v 1.034118 4.953572 -1.126991
v 4.297651 4.53547 -0.365709
v 4.297651 4.884067 -0.365709
v 4.381982 4.53547 -0.365709
v 4.381982 4.884067 -0.365709
v 4.339817 4.53547 -0.291135
v 4.339817 4.953572 -0.291498
v 4.339817 4.953572 -1.126991
v 4.297651 4.884067 -1.052781
v 4.381982 4.884067 -1.052781
v 4.339817 4.53547 -1.127346
v 4.297651 4.53547 -1.052781
v 4.381982 4.53547 -1.052781
v -4.308819 2.058996 2.715954
v 1.301933 2.060576 2.715954

# 330 Texture Coordinates
vt 2.916 0.2255
vt 2.8429 0.2255
vt 2.916 0.0631
vt 2.8429 0.0631
vt 2.916 0.0631
vt 2.8429 0.2255
vt 2.9328 0.1919
vt 2.916 0.2255
vt 2.9328 0.1012
vt 2.916 0.0631
vt 2.9328 0.1012
vt 2.916 0.2255
vt 2.916 0.3321
vt 2.9328 0.2985
vt 2.9962 0.3321
vt 2.9962 0.2985
vt 2.9962 0.3321
vt 2.9328 0.2985
vt 2.9962 0.3321
vt 2.9962 0.4548
vt 2.916 0.3321
vt 2.8429 0.4548
vt 2.916 0.3321
vt 2.9962 0.4548
vt 2.916 0.3321
vt 2.8429 0.4548
vt 2.8429 0.3321
vt 2.9961 0.5077
vt 2.8429 0.4548
vt 2.9962 0.4548
vt 2.8429 0.4548
vt 2.9961 0.5077
vt 2.8233 0.5077
vt 2.9962 0.1919
vt 2.9328 0.1012
vt 2.9962 0.0048
vt 2.9328 0.1012
vt 2.9962 0.1919
vt 2.9328 0.1919
vt 2.8238 0.0113
vt 2.916 0.0631
vt 2.8429 0.0631
vt 2.916 0.0631
vt 2.8238 0.0113
vt 2.9966 0.0113
vt 2.5977 0.3569
vt 2.5977 0.4794
vt 2.5515 0.3128
vt 2.5621 0.5118
vt 2.5515 0.3128
vt 2.5977 0.4794
vt 2.5515 0.5118
vt 2.5515 0.3128
vt 2.5621 0.5118
vt 2.5515 0.3128
vt 2.5515 0.5118
vt 2.519 0.3733
vt 2.0118 0.6128
vt 2.0117 0.623
vt 2.0164 0.6026
vt 2.0184 0.6365
vt 2.0164 0.6026
vt 2.0117 0.623
vt 2.0299 0.6459
vt 2.0164 0.6026
vt 2.0184 0.6365
vt 2.0164 0.6026
vt 2.0299 0.6459
vt 2.0304 0.5901
vt 2.0304 0.5901
vt 2.0299 0.6459
vt 2.1029 0.5569
vt 2.1767 0.6459
vt 2.1029 0.5569
vt 2.0299 0.6459
vt 2.1029 0.5569
vt 2.1767 0.6459
vt 2.1224 0.5539
vt 2.1767 0.5539
vt 2.1224 0.5539
vt 2.1767 0.6459
vt 2.0164 0.6026
vt 2.0117 0.623
vt 2.0118 0.6128
vt 2.0117 0.623
vt 2.0164 0.6026
vt 2.0184 0.6365
vt 2.0184 0.6365
vt 2.0164 0.6026
vt 2.0299 0.6459
vt 2.0304 0.5901
vt 2.0299 0.6459
vt 2.0164 0.6026
vt 2.1029 0.5569
vt 2.0299 0.6459
vt 2.0304 0.5901
vt 2.0299 0.6459
vt 2.1029 0.5569
vt 2.1767 0.6459
vt 2.1224 0.5539
vt 2.1767 0.6459
vt 2.1029 0.5569
vt 2.1767 0.6459
vt 2.1224 0.5539
vt 2.1767 0.5539
vt 2.4518 0.3546
vt 2.4842 0.3147
vt 2.4842 0.3776
vt 2.4949 0.3147
vt 2.4842 0.3776
vt 2.4842 0.3147
vt 2.5109 0.3522
vt 2.4842 0.3776
vt 2.4949 0.3147
vt 2.5305 0.5142
vt 2.4842 0.3776
vt 2.5109 0.3522
vt 2.4842 0.3776
vt 2.5305 0.5142
vt 2.4842 0.47
vt 2.2753 0.6456
vt 2.2753 0.5535
vt 2.4153 0.6456
vt 2.3695 0.5535
vt 2.4153 0.6456
vt 2.2753 0.5535
vt 2.384 0.5565
vt 2.4153 0.6456
vt 2.3695 0.5535
vt 2.4287 0.6002
vt 2.4153 0.6456
vt 2.384 0.5565
vt 2.4342 0.6102
vt 2.4153 0.6456
vt 2.4287 0.6002
vt 2.4153 0.6456
vt 2.4342 0.6102
vt 2.4277 0.6348
vt 2.4336 0.6197
vt 2.4277 0.6348
vt 2.4342 0.6102
vt 2.4153 0.6456
vt 2.2753 0.5535
vt 2.2753 0.6456
vt 2.2753 0.5535
vt 2.4153 0.6456
vt 2.3695 0.5535
vt 2.3695 0.5535
vt 2.4153 0.6456
vt 2.384 0.5565
vt 2.384 0.5565
vt 2.4153 0.6456
vt 2.4287 0.6002
vt 2.4287 0.6002
vt 2.4153 0.6456
vt 2.4342 0.6102
vt 2.4277 0.6348
vt 2.4342 0.6102
vt 2.4153 0.6456
vt 2.4342 0.6102
vt 2.4277 0.6348
vt 2.4336 0.6197
vt 2.916 0.0631
vt 2.9962 0.0048
vt 2.9328 0.1012
vt 2.685 0.3361
vt 2.685 0.1701
vt 2.6744 0.1701
vt 2.685 0.3361
vt 2.6744 0.5245
vt 2.685 0.5245
vt 2.8238 0.0007
vt 2.9966 0.0113
vt 2.8238 0.0113
vt 2.9966 0.0113
vt 2.8238 0.0007
vt 2.9966 0.0007
vt 2.9961 0.5184
vt 2.8233 0.5077
vt 2.9961 0.5077
vt 2.8233 0.5077
vt 2.9961 0.5184
vt 2.8233 0.5184
vt 2.9865 0.6055
vt 2.9865 0.6369
vt 2.9933 0.6055
vt 2.9932 0.6432
vt 2.9933 0.6055
vt 2.9865 0.6369
vt 2.9865 0.6369
vt 2.9933 0.6055
vt 2.9932 0.6432
vt 2.9933 0.6055
vt 2.9865 0.6369
vt 2.9865 0.6055
vt 2.9865 0.6369
vt 2.9865 0.6055
vt 2.9865 0.6369
vt 2.9865 0.6055
vt 2.9865 0.6369
vt 2.9865 0.6055
vt 2.9246 0.6055
vt 2.9246 0.6369
vt 2.9179 0.6055
vt 2.9246 0.6369
vt 2.9246 0.6055
vt 2.9246 0.6369
vt 2.9246 0.6055
vt 2.9246 0.6369
vt 2.9246 0.6055
vt 2.9179 0.6055
vt 2.9246 0.6369
vt 2.9246 0.6055
vt 2.9246 0.6369
vt 2.9179 0.6055
vt 2.9179 0.6432
vt 2.9246 0.6369
vt 2.9179 0.6432
vt 2.9179 0.6055
vt 2.9179 0.6432
vt 2.9246 0.6369
vt 2.9865 0.6369
vt 2.9246 0.6369
vt 2.9865 0.6369
vt 2.9246 0.6369
vt 2.9865 0.6369
vt 2.9246 0.6369
vt 2.9865 0.6369
vt 2.9179 0.6432
vt 2.9865 0.6369
vt 2.9246 0.6369
vt 2.9865 0.6369
vt 2.9179 0.6432
vt 2.9932 0.6432
vt 2.9865 0.6369
vt 2.9932 0.6432
vt 2.9179 0.6432
vt 2.9865 0.6055
vt 2.9865 0.6369
vt 2.9865 0.6055
vt 2.9865 0.6369
vt 2.9865 0.6055
vt 2.9865 0.6369
vt 2.9865 0.6055
vt 2.9865 0.6369
vt 2.9933 0.6055
vt 2.9932 0.6432
vt 2.9933 0.6055
vt 2.9865 0.6369
vt 2.9865 0.6369
vt 2.9933 0.6055
vt 2.9932 0.6432
vt 2.9933 0.6055
vt 2.9865 0.6369
vt 2.9865 0.6055
vt 2.9179 0.6432
vt 2.9932 0.6432
vt 2.9865 0.6369
vt 2.9932 0.6432
vt 2.9179 0.6432
vt 2.9865 0.6369
vt 2.9246 0.6369
vt 2.9865 0.6369
vt 2.9179 0.6432
vt 2.9865 0.6369
vt 2.9246 0.6369
vt 2.9865 0.6369
vt 2.9246 0.6369
vt 2.9865 0.6369
vt 2.9246 0.6369
vt 2.9865 0.6369
vt 2.9246 0.6369
vt 2.9179 0.6432
vt 2.9179 0.6055
vt 2.9179 0.6432
vt 2.9246 0.6369
vt 2.9179 0.6432
vt 2.9179 0.6055
vt 2.9246 0.6369
vt 2.9246 0.6055
vt 2.9246 0.6369
vt 2.9179 0.6055
vt 2.9246 0.6055
vt 2.9246 0.6369
vt 2.9246 0.6055
vt 2.9246 0.6369
vt 2.9246 0.6055
vt 2.9246 0.6369
vt 2.9179 0.6055
vt 2.9246 0.6369
vt 2.9246 0.6055
vt 2.7641 0.254
vt 2.7641 0.2777
vt 2.7937 0.2777
vt 2.7641 0.2169
vt 2.7641 0.2238
vt 2.7937 0.2169
vt 2.7641 0.2238
vt 2.7937 0.2238
vt 2.7937 0.2169
vt 2.7641 0.254
vt 2.7937 0.2541
vt 2.7641 0.2436
vt 2.7641 0.2436
vt 2.7937 0.2541
vt 2.7641 0.2277
vt 2.7937 0.2777
vt 2.7937 0.2541
vt 2.7641 0.254
vt 2.7937 0.2541
vt 2.7937 0.2238
vt 2.7641 0.2277
vt 2.7641 0.2238
vt 2.7641 0.2277
vt 2.7937 0.2238
vt 2.6744 0.1701
vt 2.6419 0.2101
vt 2.685 0.3361
vt 2.6419 0.3867
vt 2.685 0.3361
vt 2.6419 0.2101
vt 2.685 0.3361
vt 2.6419 0.3867
vt 2.6744 0.5245
vt 2.7206 0.3696
vt 2.685 0.5245
vt 2.7206 0.4921
vt 2.685 0.5245
vt 2.7206 0.3696
vt 2.685 0.3361

# 330 Vertex Normals
vn -0.178292 0.983978 0.0
vn -0.080032 0.996792 0.0
vn -0.145523 0.986896 0.069704
vn -0.259024 0.965871 0.0
vn -0.145523 0.986896 0.069704
vn -0.080032 0.996792 0.0
vn 0.0 0.426137 0.904659
vn -0.040047 0.547041 0.836147
vn -0.040047 0.547041 0.836147
vn 0.132857 0.810719 0.570161
vn 0.089889 0.70036 0.708107
vn -0.040047 0.547041 0.836147
vn -0.450813 0.892619 0.0
vn -0.727867 0.685718 0.0
vn -0.727867 0.685718 0.0
vn -0.727867 0.685718 0.0
vn -0.727867 0.685718 0.0
vn -0.727867 0.685718 0.0
vn 0.0 1.0 0.0
vn 0.0 1.0 0.0
vn -0.030004 0.99955 0.0
vn 0.0 1.0 0.0
vn -0.030004 0.99955 0.0
vn 0.0 1.0 0.0
vn -0.030004 0.99955 0.0
vn 0.0 1.0 0.0
vn -0.080032 0.996792 0.0
vn 0.878606 0.477547 0.0
vn 0.739167 0.673522 0.0
vn 0.739167 0.673522 0.0
vn 0.739167 0.673522 0.0
vn 0.878606 0.477547 0.0
vn 0.971075 0.238774 0.0
vn 0.0 1.0 0.0
vn 0.113502 0.986995 0.113832
vn -0.021772 0.9928 0.117789
vn 0.113502 0.986995 0.113832
vn 0.0 1.0 0.0
vn 0.0 1.0 0.0
vn -0.392987 0.919544 0.0
vn -0.259024 0.965871 0.0
vn -0.259024 0.965871 0.0
vn -0.259024 0.965871 0.0
vn -0.392987 0.919544 0.0
vn -0.200569 0.97968 0.0
vn -0.022161 0.444464 -0.895523
vn -0.0124 0.42728 -0.904034
vn -0.005069 0.254389 -0.967089
vn -0.012759 0.238962 -0.970945
vn -0.005069 0.254389 -0.967089
vn -0.0124 0.42728 -0.904034
vn 0.0 0.000001 -1.0
vn -0.005069 0.254389 -0.967089
vn -0.012759 0.238962 -0.970945
vn -0.005069 0.254389 -0.967089
vn 0.0 0.000001 -1.0
vn 0.0 0.000001 -1.0
vn 0.0 -0.0 -1.0
vn 0.0 0.0 -1.0
vn 0.000002 0.0 -1.0
vn 0.000003 -0.0 -1.0
vn 0.000002 0.0 -1.0
vn 0.0 0.0 -1.0
vn -0.012722 -0.010433 -0.999865
vn 0.000002 0.0 -1.0
vn 0.000003 -0.0 -1.0
vn 0.000002 0.0 -1.0
vn -0.012722 -0.010433 -0.999865
vn 0.000001 0.000001 -1.0
vn 0.000001 0.000001 -1.0
vn -0.012722 -0.010433 -0.999865
vn -0.021008 -0.038584 -0.999035
vn -0.002563 -0.069477 -0.99758
vn -0.021008 -0.038584 -0.999035
vn -0.012722 -0.010433 -0.999865
vn -0.021008 -0.038584 -0.999035
vn -0.002563 -0.069477 -0.99758
vn -0.006055 -0.077509 -0.996973
vn 0.017598 -0.054059 -0.998383
vn -0.006055 -0.077509 -0.996973
vn -0.002563 -0.069477 -0.99758
vn 0.0 0.0 1.0
vn 0.0 0.0 1.0
vn 0.0 0.0 1.0
vn 0.0 0.0 1.0
vn 0.0 0.0 1.0
vn 0.0 0.0 1.0
vn 0.0 0.0 1.0
vn 0.0 0.0 1.0
vn 0.012723 0.010434 0.999865
vn 0.0 0.0 1.0
vn 0.012723 0.010434 0.999865
vn 0.0 0.0 1.0
vn 0.021009 0.038584 0.999034
vn 0.012723 0.010434 0.999865
vn 0.0 0.0 1.0
vn 0.012723 0.010434 0.999865
vn 0.021009 0.038584 0.999034
vn 0.002563 0.069477 0.99758
vn 0.006055 0.077509 0.996973
vn 0.002563 0.069477 0.99758
vn 0.021009 0.038584 0.999034
vn 0.002563 0.069477 0.99758
vn 0.006055 0.077509 0.996973
vn -0.017598 0.054059 0.998383
vn 0.0 0.000001 -1.0
vn 0.0 0.000001 -1.0
vn 0.009262 0.333416 -0.942734
vn 0.059065 0.34993 -0.934912
vn 0.009262 0.333416 -0.942734
vn 0.0 0.000001 -1.0
vn 0.022256 0.605128 -0.795817
vn 0.009262 0.333416 -0.942734
vn 0.059065 0.34993 -0.934912
vn -0.022161 0.444464 -0.895523
vn 0.009262 0.333416 -0.942734
vn 0.022256 0.605128 -0.795817
vn 0.009262 0.333416 -0.942734
vn -0.022161 0.444464 -0.895523
vn -0.005069 0.254389 -0.967089
vn 0.002563 0.069477 0.99758
vn -0.017598 0.054059 0.998383
vn -0.008795 0.0135 0.99987
vn 0.0 -0.0 1.0
vn -0.008795 0.0135 0.99987
vn -0.017598 0.054059 0.998383
vn -0.0 -0.0 1.0
vn -0.008795 0.0135 0.99987
vn 0.0 -0.0 1.0
vn -0.0 -0.0 1.0
vn -0.008795 0.0135 0.99987
vn -0.0 -0.0 1.0
vn 0.0 -0.0 1.0
vn -0.008795 0.0135 0.99987
vn -0.0 -0.0 1.0
vn -0.008795 0.0135 0.99987
vn 0.0 -0.0 1.0
vn 0.0 -0.0 1.0
vn 0.0 -0.0 1.0
vn 0.0 -0.0 1.0
vn 0.0 -0.0 1.0
vn 0.008794 -0.0135 -0.99987
vn 0.017598 -0.054059 -0.998383
vn -0.002563 -0.069477 -0.99758
vn 0.017598 -0.054059 -0.998383
vn 0.008794 -0.0135 -0.99987
vn -0.0 0.000001 -1.0
vn -0.0 0.000001 -1.0
vn 0.008794 -0.0135 -0.99987
vn -0.000001 0.000001 -1.0
vn -0.000001 0.000001 -1.0
vn 0.008794 -0.0135 -0.99987
vn -0.000001 0.000001 -1.0
vn -0.000001 0.000001 -1.0
vn 0.008794 -0.0135 -0.99987
vn -0.000003 -0.0 -1.0
vn -0.000003 -0.000001 -1.0
vn -0.000003 -0.0 -1.0
vn 0.008794 -0.0135 -0.99987
vn -0.000003 -0.0 -1.0
vn -0.000003 -0.000001 -1.0
vn 0.0 0.0 -1.0
vn 0.003406 0.955924 0.293594
vn 0.170841 0.970287 0.171337
vn 0.068 0.954051 0.291826
vn 0.0 -0.0 1.0
vn 0.0 0.0 1.0
vn 0.0 0.0 1.0
vn 0.0 -0.0 1.0
vn 0.0 0.0 1.0
vn 0.0 -0.0 1.0
vn -1.0 0.0 0.0
vn -1.0 0.0 0.0
vn -1.0 0.0 0.0
vn -1.0 0.0 0.0
vn -1.0 0.0 0.0
vn -1.0 0.0 -0.0
vn 1.0 0.0 0.0
vn 0.971075 0.238774 0.0
vn 0.878606 0.477547 0.0
vn 0.971075 0.238774 0.0
vn 1.0 0.0 0.0
vn 1.0 0.0 -0.0
vn 0.870493 0.0 0.492182
vn 0.923659 0.277831 0.263941
vn 0.870063 0.000215 0.492941
vn 0.923496 0.277966 0.264367
vn 0.870063 0.000215 0.492941
vn 0.923659 0.277831 0.263941
vn -0.923654 0.277839 0.263949
vn -0.870056 0.000215 0.492953
vn -0.923491 0.277974 0.264375
vn -0.870056 0.000215 0.492953
vn -0.923654 0.277839 0.263949
vn -0.870486 0.0 0.492194
vn 0.0 0.0 -1.0
vn 0.0 0.0 -1.0
vn 0.0 -0.0 -1.0
vn 0.0 0.0 -1.0
vn 0.0 0.0 -1.0
vn 0.0 0.0 -1.0
vn -0.870459 0.0 -0.492241
vn -0.918875 0.183807 -0.349119
vn -0.870039 0.000209 -0.492983
vn 0.0 0.0 1.0
vn 0.0 0.0 1.0
vn 0.0 0.0 1.0
vn 0.0 0.0 1.0
vn 0.0 0.0 1.0
vn 0.0 0.0 1.0
vn 0.870046 0.000209 -0.492971
vn 0.91888 0.183802 -0.349109
vn 0.870466 -0.0 -0.492229
vn 0.91888 0.183802 -0.349109
vn 0.870046 0.000209 -0.492971
vn 0.913453 0.367477 -0.174828
vn -0.918875 0.183807 -0.349119
vn -0.913447 0.367488 -0.174833
vn -0.870039 0.000209 -0.492983
vn -0.913447 0.367488 -0.174833
vn -0.918875 0.183807 -0.349119
vn -0.923654 0.277839 0.263949
vn 0.0 -1.0 0.0
vn 0.0 -1.0 0.0
vn 0.000001 -1.0 0.0
vn 0.0 -1.0 0.0
vn 0.0 -1.0 0.0
vn -0.000001 -1.0 0.0
vn 0.913453 0.367477 -0.174828
vn 0.923659 0.277831 0.263941
vn 0.91888 0.183802 -0.349109
vn 0.923659 0.277831 0.263941
vn 0.913453 0.367477 -0.174828
vn 0.923496 0.277966 0.264367
vn -0.923654 0.277839 0.263949
vn -0.923491 0.277974 0.264375
vn -0.913447 0.367488 -0.174833
vn 0.0 0.0 -1.0
vn 0.0 0.0 -1.0
vn 0.0 0.0 -1.0
vn 0.0 0.0 -1.0
vn 0.0 0.0 -1.0
vn 0.0 0.0 -1.0
vn 0.870493 0.0 0.492181
vn 0.923658 0.277831 0.263941
vn 0.870063 0.000215 0.49294
vn 0.923496 0.277966 0.264367
vn 0.870063 0.000215 0.49294
vn 0.923658 0.277831 0.263941
vn -0.923655 0.277837 0.263947
vn -0.870058 0.000215 0.49295
vn -0.923493 0.277971 0.264373
vn -0.870058 0.000215 0.49295
vn -0.923655 0.277837 0.263947
vn -0.870488 0.0 0.49219
vn 0.913452 0.367478 -0.174828
vn 0.923496 0.277966 0.264367
vn 0.923658 0.277831 0.263941
vn -0.923493 0.277971 0.264373
vn -0.913449 0.367485 -0.174832
vn -0.923655 0.277837 0.263947
vn -0.918876 0.183806 -0.349116
vn -0.923655 0.277837 0.263947
vn -0.913449 0.367485 -0.174832
vn -0.000001 -1.0 0.0
vn 0.0 -1.0 0.0
vn 0.0 -1.0 0.0
vn 0.000001 -1.0 0.0
vn 0.0 -1.0 0.0
vn 0.0 -1.0 0.0
vn 0.923658 0.277831 0.263941
vn 0.91888 0.183802 -0.349109
vn 0.913452 0.367478 -0.174828
vn 0.870046 0.000209 -0.49297
vn 0.913452 0.367478 -0.174828
vn 0.91888 0.183802 -0.349109
vn -0.913449 0.367485 -0.174832
vn -0.870041 0.000209 -0.49298
vn -0.918876 0.183806 -0.349116
vn -0.870461 0.0 -0.492237
vn -0.918876 0.183806 -0.349116
vn -0.870041 0.000209 -0.49298
vn 0.0 -0.0 1.0
vn 0.0 -0.0 1.0
vn 0.0 -0.0 1.0
vn 0.0 -0.0 1.0
vn 0.0 -0.0 1.0
vn 0.0 0.0 1.0
vn 0.870046 0.000209 -0.49297
vn 0.91888 0.183802 -0.349109
vn 0.870466 -0.0 -0.492229
vn -0.005313 -0.999986 0.000322
vn 0.228034 -0.973653 -0.0
vn 0.22854 -0.973534 -0.000429
vn -0.630338 -0.776321 -0.0
vn -0.630531 -0.776164 -0.000075
vn -0.630531 -0.776164 -0.000075
vn -0.630531 -0.776164 -0.000075
vn -0.335797 -0.936753 -0.098664
vn -0.630531 -0.776164 -0.000075
vn -0.005313 -0.999986 0.000322
vn -0.063128 -0.993382 -0.095955
vn -0.244381 -0.965037 -0.094771
vn -0.244381 -0.965037 -0.094771
vn -0.063128 -0.993382 -0.095955
vn 0.000138 -0.982744 -0.184971
vn 0.22854 -0.973534 -0.000429
vn -0.063128 -0.993382 -0.095955
vn -0.005313 -0.999986 0.000322
vn -0.063128 -0.993382 -0.095955
vn -0.335797 -0.936753 -0.098664
vn 0.000138 -0.982744 -0.184971
vn 0.815482 -0.578783 -0.000263
vn 0.815482 -0.578783 -0.000263
vn 0.815482 -0.578783 -0.000263
vn 0.0 0.0 1.0
vn 0.0 -0.0 1.0
vn 0.0 -0.0 1.0
vn 0.0 0.0 1.0
vn 0.0 -0.0 1.0
vn 0.0 -0.0 1.0
vn 0.0 -0.0 1.0
vn 0.0 0.0 1.0
vn 0.0 0.0 1.0
vn 0.0 -0.000001 1.0
vn 0.0 -0.0 1.0
vn 0.0 -0.000001 1.0
vn 0.0 -0.0 1.0
vn 0.0 -0.000001 1.0
vn 0.0 -0.0 1.0

# 110 Ungrouped triangles

o ungrouped
g ungrouped

f 1/1/1 2/2/2 3/3/3
f 4/4/4 3/5/5 2/6/6
f 5/7/7 1/8/8 6/9/9
f 3/10/10 6/11/11 1/12/12
f 1/13/13 5/14/14 7/15/15
f 8/16/16 7/17/17 5/18/18
f 7/19/19 9/20/20 1/21/21
f 10/22/22 1/23/23 9/24/24
f 1/25/25 10/26/26 2/27/27
f 11/28/28 10/29/29 9/30/30
f 10/31/31 11/32/32 12/33/33
f 8/34/34 6/35/35 13/36/36
f 6/37/37 8/38/38 5/39/39
f 14/40/40 3/41/41 4/42/42
f 3/43/43 14/44/44 13/45/45
f 2/46/46 10/47/47 15/48/48
f 12/49/49 15/50/50 10/51/51
f 16/52/52 15/53/53 12/54/54
f 15/55/55 16/56/56 17/57/57
f 18/58/58 19/59/59 20/60/60
f 21/61/61 20/62/62 19/63/63
f 22/64/64 20/65/65 21/66/66
f 20/67/67 22/68/68 23/69/69
f 23/70/70 22/71/71 24/72/72
f 25/73/73 24/74/74 22/75/75
f 24/76/76 25/77/77 26/78/78
f 27/79/79 26/80/80 25/81/81
f 28/82/82 29/83/83 30/84/84
f 29/85/85 28/86/86 31/87/87
f 31/88/88 28/89/89 32/90/90
f 33/91/91 32/92/92 28/93/93
f 34/94/94 32/95/95 33/96/96
f 32/97/97 34/98/98 35/99/99
f 36/100/100 35/101/101 34/102/102
f 35/103/103 36/104/104 37/105/105
f 38/106/106 39/107/107 40/108/108
f 14/109/109 40/110/110 39/111/111
f 4/112/112 40/113/113 14/114/114
f 2/115/115 40/116/116 4/117/117
f 40/118/118 2/119/119 15/120/120
f 35/121/121 37/122/122 41/123/123
f 42/124/124 41/125/125 37/126/126
f 43/127/127 41/128/128 42/129/129
f 44/130/130 41/131/131 43/132/132
f 45/133/133 41/134/134 44/135/135
f 41/136/136 45/137/137 46/138/138
f 47/139/139 46/140/140 45/141/141
f 48/142/142 27/143/143 25/144/144
f 27/145/145 48/146/146 49/147/147
f 49/148/148 48/149/149 50/150/150
f 50/151/151 48/152/152 51/153/153
f 51/154/154 48/155/155 52/156/156
f 53/157/157 52/158/158 48/159/159
f 52/160/160 53/161/161 54/162/162
f 3/163/163 13/164/164 6/165/165
f 8/166/166 13/167/167 55/168/168
f 8/169/169 56/170/170 11/171/171
f 39/172/172 13/173/173 14/174/174
f 13/175/175 39/176/176 55/177/177
f 56/178/178 12/179/179 11/180/180
f 12/181/181 56/182/182 16/183/183
f 57/184/184 58/185/185 59/186/186
f 60/187/187 59/188/188 58/189/189
f 61/190/190 59/191/191 60/192/192
f 59/193/193 61/194/194 62/195/195
f 58/196/196 62/197/197 61/198/198
f 62/199/199 58/200/200 57/201/201
f 63/202/202 64/203/203 65/204/204
f 64/205/205 63/206/206 66/207/207
f 67/208/208 66/209/209 63/210/210
f 65/211/211 66/212/212 67/213/213
f 66/214/214 65/215/215 68/216/216
f 64/217/217 68/218/218 65/219/219
f 68/220/220 64/221/221 61/222/222
f 66/223/223 61/224/224 64/225/225
f 61/226/226 66/227/227 58/228/228
f 68/229/229 58/230/230 66/231/231
f 58/232/232 68/233/233 60/234/234
f 61/235/235 60/236/236 68/237/237
f 69/238/238 70/239/239 71/240/240
f 72/241/241 71/242/242 70/243/243
f 71/244/244 72/245/245 73/246/246
f 74/247/247 73/248/248 72/249/249
f 70/250/250 73/251/251 74/252/252
f 73/253/253 70/254/254 69/255/255
f 75/256/256 74/257/257 72/258/258
f 74/259/259 75/260/260 70/261/261
f 76/262/262 70/263/263 75/264/264
f 70/265/265 76/266/266 72/267/267
f 77/268/268 72/269/269 76/270/270
f 72/271/271 77/272/272 75/273/273
f 78/274/274 75/275/275 77/276/276
f 75/277/277 78/278/278 76/279/279
f 79/280/280 76/281/281 78/282/282
f 80/283/283 76/284/284 79/285/285
f 76/286/286 80/287/287 77/288/288
f 78/289/289 77/290/290 80/291/291
f 17/292/292 16/293/293 56/294/294
f 39/295/295 38/296/296 55/297/297
f 38/298/298 81/299/299 55/300/300
f 17/301/301 82/302/302 15/303/303
f 15/304/304 82/305/305 40/306/306
f 56/307/307 82/308/308 17/309/309
f 82/310/310 81/311/311 40/312/312
f 38/313/313 40/314/314 81/315/315
f 55/316/316 81/317/317 8/318/318
f 82/319/319 8/320/320 81/321/321
f 8/322/322 82/323/323 56/324/324
f 7/325/325 11/326/326 9/327/327
f 11/328/328 7/329/329 8/330/330
